<svg width="60" height="60" viewBox="0 0 60 60" fill="none" xmlns="http://www.w3.org/2000/svg">
<path d="M42.5 8.75002C42.5 8.05966 41.9404 7.50002 41.25 7.50002H35C28.4483 7.17366 22.8632 12.2002 22.5 18.75V25.5H16.25C15.5596 25.5 15 26.0597 15 26.75V33.25C15 33.9404 15.5596 34.5 16.25 34.5H22.5V51.25C22.5 51.9404 23.0596 52.5 23.75 52.5H31.25C31.9404 52.5 32.5 51.9404 32.5 51.25V34.5H39.05C39.6219 34.5082 40.1264 34.1273 40.275 33.575L42.075 27.075C42.1758 26.7007 42.0972 26.3008 41.8623 25.9924C41.6274 25.6841 41.2626 25.5022 40.875 25.5H32.5V18.75C32.6289 17.4678 33.7113 16.4936 35 16.5H41.25C41.9404 16.5 42.5 15.9404 42.5 15.25V8.75002Z" fill="#1877F2"/>
</svg>
