<svg width="60" height="60" viewBox="0 0 60 60" fill="none" xmlns="http://www.w3.org/2000/svg">
<path d="M24.4448 30C24.4448 33.0677 26.9313 35.5552 30 35.5552C33.0687 35.5552 35.5552 33.0687 35.5552 30C35.5552 26.9323 33.0687 24.4448 30 24.4448C26.9323 24.4448 24.4448 26.9313 24.4448 30Z" fill="#E02D69"/>
<path fill-rule="evenodd" clip-rule="evenodd" d="M30 16.3365C34.45 16.3365 34.9771 16.3531 36.7344 16.4333C38.6312 16.5198 40.3917 16.9 41.7458 18.2542C43.1 19.6083 43.4802 21.3688 43.5667 23.2656C43.6469 25.0229 43.6635 25.55 43.6635 30C43.6635 34.45 43.6469 34.9771 43.5667 36.7344C43.4802 38.6312 43.1 40.3917 41.7458 41.7458C40.3917 43.1 38.6312 43.4802 36.7344 43.5667C34.9771 43.6469 34.45 43.6635 30 43.6635C25.55 43.6635 25.0229 43.6469 23.2656 43.5667C21.3688 43.4802 19.6083 43.1 18.2542 41.7458C16.9 40.3917 16.5198 38.6312 16.4333 36.7344C16.3531 34.9771 16.3365 34.45 16.3365 30C16.3365 25.55 16.3531 25.0229 16.4333 23.2656C16.5198 21.3688 16.9 19.6083 18.2542 18.2542C19.6083 16.9 21.3688 16.5198 23.2656 16.4333C25.0229 16.3531 25.55 16.3365 30 16.3365ZM21.4417 30C21.4417 25.274 25.2729 21.4417 30 21.4417C34.7271 21.4417 38.5583 25.274 38.5583 30C38.5583 34.726 34.726 38.5583 30 38.5583C25.274 38.5583 21.4417 34.726 21.4417 30ZM38.8969 23.1031C40.0014 23.1031 40.8969 22.2077 40.8969 21.1031C40.8969 19.9986 40.0014 19.1031 38.8969 19.1031C37.7923 19.1031 36.8969 19.9986 36.8969 21.1031C36.8969 22.2077 37.7923 23.1031 38.8969 23.1031Z" fill="#E02D69"/>
<path fill-rule="evenodd" clip-rule="evenodd" d="M19.6927 5.15C22.3594 5.02917 23.2104 5 30 5C36.7896 5 37.6406 5.02917 40.3073 5.15C44.3719 5.33542 47.9396 6.33125 50.8042 9.19583C53.6698 12.0615 54.6646 15.6302 54.85 19.6927C54.9708 22.3594 55 23.2104 55 30C55 36.7896 54.9708 37.6406 54.85 40.3073C54.6646 44.3719 53.6688 47.9396 50.8042 50.8042C47.9385 53.6698 44.3687 54.6646 40.3073 54.85C37.6406 54.9708 36.7896 55 30 55C23.2104 55 22.3594 54.9708 19.6927 54.85C15.6281 54.6646 12.0604 53.6688 9.19583 50.8042C6.33021 47.9385 5.33542 44.3698 5.15 40.3073C5.02917 37.6406 5 36.7896 5 30C5 23.2104 5.02917 22.3594 5.15 19.6927C5.33542 15.6281 6.33125 12.0604 9.19583 9.19583C12.0615 6.33021 15.6302 5.33542 19.6927 5.15ZM30 13.3333C25.474 13.3333 24.9063 13.3521 23.1281 13.4333C20.4198 13.5573 18.0406 14.2208 16.1302 16.1302C14.2208 18.0396 13.5573 20.4188 13.4333 23.1281C13.3521 24.9063 13.3333 25.474 13.3333 30C13.3333 34.526 13.3521 35.0938 13.4333 36.8719C13.5573 39.5802 14.2208 41.9594 16.1302 43.8698C18.0396 45.7792 20.4188 46.4427 23.1281 46.5667C24.9063 46.6479 25.474 46.6667 30 46.6667C34.526 46.6667 35.0938 46.6479 36.8719 46.5667C39.5802 46.4427 41.9594 45.7792 43.8698 43.8698C45.7792 41.9604 46.4427 39.5813 46.5667 36.8719C46.6479 35.0938 46.6667 34.526 46.6667 30C46.6667 25.474 46.6479 24.9063 46.5667 23.1281C46.4427 20.4198 45.7792 18.0406 43.8698 16.1302C41.9604 14.2208 39.5813 13.5573 36.8719 13.4333C35.0938 13.3521 34.526 13.3333 30 13.3333Z" fill="#E02D69"/>
</svg>
