<svg width="60" height="60" viewBox="0 0 60 60" fill="none" xmlns="http://www.w3.org/2000/svg">
<path d="M37.875 21C34.0051 20.9867 30.2889 22.513 27.5454 25.2424C24.802 27.9717 23.2566 31.6801 23.25 35.55V50.25C23.25 50.8467 23.4871 51.419 23.909 51.841C24.331 52.2629 24.9033 52.5 25.5 52.5H30.75C31.9926 52.5 33 51.4926 33 50.25V35.55C32.999 34.1717 33.5845 32.8581 34.6102 31.9374C35.6358 31.0166 37.0048 30.5758 38.375 30.725C40.8899 31.0418 42.7699 33.1903 42.75 35.725V50.25C42.75 51.4926 43.7574 52.5 45 52.5H50.25C51.4926 52.5 52.5 51.4926 52.5 50.25V35.55C52.4934 31.6801 50.948 27.9717 48.2046 25.2424C45.4611 22.513 41.7449 20.9867 37.875 21Z" fill="#007EBB"/>
<path d="M7.5 25.5C7.5 24.2574 8.50736 23.25 9.75 23.25H16.5C17.7426 23.25 18.75 24.2574 18.75 25.5V50.25C18.75 51.4926 17.7426 52.5 16.5 52.5H9.75C8.50736 52.5 7.5 51.4926 7.5 50.25V25.5Z" fill="#007EBB"/>
<path d="M18.75 13.125C18.75 16.2316 16.2316 18.75 13.125 18.75C10.0184 18.75 7.5 16.2316 7.5 13.125C7.5 10.0184 10.0184 7.5 13.125 7.5C16.2316 7.5 18.75 10.0184 18.75 13.125Z" fill="#007EBB"/>
</svg>
