<svg width="60" height="60" viewBox="0 0 60 60" fill="none" xmlns="http://www.w3.org/2000/svg">
<path d="M30 55C26.1227 55.0941 22.3663 53.6468 19.5545 50.9755C16.7426 48.3043 15.1048 44.627 15 40.75V15.325C15.0721 12.5222 16.2516 9.86222 18.2804 7.92714C20.3092 5.99206 23.022 4.93954 25.825 4.99998C28.6323 4.93283 31.3515 5.98235 33.3857 7.91815C35.42 9.85394 36.603 12.5178 36.675 15.325V40.775C36.571 42.4714 35.8238 44.0643 34.5858 45.2288C33.3478 46.3933 31.7121 47.0417 30.0125 47.0417C28.3129 47.0417 26.6772 46.3933 25.4392 45.2288C24.2012 44.0643 23.454 42.4714 23.35 40.775V17.3C23.35 16.6369 23.6134 16.0011 24.0822 15.5322C24.5511 15.0634 25.187 14.8 25.85 14.8C26.513 14.8 27.1489 15.0634 27.6178 15.5322C28.0866 16.0011 28.35 16.6369 28.35 17.3V40.775C28.3999 41.1808 28.5964 41.5544 28.9027 41.8253C29.2089 42.0962 29.6036 42.2457 30.0125 42.2457C30.4214 42.2457 30.8161 42.0962 31.1223 41.8253C31.4286 41.5544 31.6251 41.1808 31.675 40.775V15.325C31.5973 13.846 30.9394 12.4574 29.8442 11.4604C28.749 10.4635 27.3047 9.9387 25.825 9.99998C24.3495 9.94544 22.9117 10.4732 21.8219 11.4695C20.7321 12.4657 20.0777 13.8505 20 15.325V40.75C20.1041 43.3011 21.2149 45.7069 23.0892 47.4407C24.9635 49.1744 27.4485 50.0947 30 50C32.5515 50.0947 35.0365 49.1744 36.9108 47.4407C38.7851 45.7069 39.8959 43.3011 40 40.75V15.325C40 14.6619 40.2634 14.0261 40.7322 13.5572C41.2011 13.0884 41.837 12.825 42.5 12.825C43.163 12.825 43.7989 13.0884 44.2678 13.5572C44.7366 14.0261 45 14.6619 45 15.325V40.75C44.8952 44.627 43.2574 48.3043 40.4455 50.9755C37.6337 53.6468 33.8773 55.0941 30 55Z" fill="#1877F2"/>
</svg>
