<svg width="60" height="60" viewBox="0 0 60 60" fill="none" xmlns="http://www.w3.org/2000/svg">
<path d="M20.2008 50.0001C27.6693 50.25 34.9214 47.469 40.308 42.2896C45.6946 37.1103 48.7577 29.9727 48.8008 22.5001C50.4949 20.4036 51.7529 17.9897 52.5008 15.4001C52.6148 14.9822 52.4729 14.5362 52.1384 14.261C51.8038 13.9858 51.3389 13.9326 50.9508 14.1251C49.1334 14.9999 46.9605 14.6177 45.5508 13.1751C43.7777 11.2334 41.2939 10.0925 38.6656 10.0125C36.0374 9.93238 33.4888 10.92 31.6008 12.7501C28.9982 15.2706 27.9071 18.9708 28.7258 22.5001C20.3508 23.0001 14.6008 19.0251 10.0008 13.5751C9.71839 13.2553 9.27364 13.1328 8.86733 13.2628C8.46102 13.3928 8.17004 13.7508 8.12577 14.1751C6.33106 24.1305 10.9179 34.1518 19.6258 39.3001C16.7749 42.5697 12.7713 44.6118 8.45077 45.0001C7.97622 45.0788 7.60421 45.4505 7.52513 45.925C7.44605 46.3995 7.67739 46.8718 8.10077 47.1001C11.8596 48.9785 15.9988 49.9706 20.2008 50.0001" fill="#00AAEC"/>
</svg>
