<svg width="100" height="100" viewBox="0 0 100 100" fill="none" xmlns="http://www.w3.org/2000/svg">
<path d="M63.6391 78.0333C58.0946 78.0342 52.6744 76.3908 48.0639 73.3112C43.4534 70.2315 39.8596 65.8538 37.7371 60.7317C35.6145 55.6096 35.0586 49.9732 36.1394 44.5351C37.2203 39.097 39.8895 34.1015 43.8094 30.1804C47.7294 26.2593 52.724 23.5886 58.1618 22.5061C63.5996 21.4237 69.2362 21.978 74.3589 24.099C79.4817 26.22 83.8604 29.8125 86.9415 34.4221C90.0225 39.0317 91.6674 44.4514 91.6682 49.9958V50C91.6605 57.4318 88.7051 64.5571 83.4504 69.8126C78.1957 75.068 71.0709 78.0245 63.6391 78.0333V78.0333Z" fill="#FFD995"/>
<path d="M36.3615 78.0333C30.817 78.0333 25.397 76.3892 20.787 73.3089C16.1769 70.2285 12.5838 65.8503 10.462 60.7279C8.34027 55.6055 7.78512 49.9689 8.86679 44.531C9.94846 39.093 12.6184 34.098 16.5389 30.1774C20.4594 26.2569 25.4545 23.587 30.8924 22.5053C36.3304 21.4237 41.9669 21.9788 47.0894 24.1006C52.2118 26.2224 56.59 29.8155 59.6703 34.4255C62.7507 39.0356 64.3948 44.4555 64.3948 50C64.3871 57.4325 61.4311 64.5584 56.1755 69.814C50.9199 75.0696 43.794 78.0256 36.3615 78.0333Z" fill="#FFAE1F"/>
</svg>
