<svg width="100" height="100" viewBox="0 0 100 100" fill="none" xmlns="http://www.w3.org/2000/svg">
<path fill-rule="evenodd" clip-rule="evenodd" d="M8.84303 53.3999C10.0411 57.5775 13.261 60.7973 19.7007 67.2371L27.3242 74.8605C38.5283 86.0646 44.1304 91.6667 51.0917 91.6667C58.053 91.6667 63.6551 86.0646 74.8592 74.8605C86.0633 63.6564 91.6654 58.0544 91.6654 51.093C91.6654 44.1317 86.0633 38.5296 74.8592 27.3255L67.2357 19.7021C60.796 13.2623 57.5761 10.0425 53.3986 8.84437C49.2211 7.64627 44.7841 8.67018 35.9102 10.718L30.7927 11.899C23.3271 13.6218 19.5942 14.4832 17.038 17.0394C14.4819 19.5956 13.6205 23.3284 11.8976 30.7941L10.7167 35.9115C8.66884 44.7854 7.64492 49.2224 8.84303 53.3999ZM42.1795 30.2958C45.4611 33.5774 45.4611 38.8979 42.1795 42.1795C38.8979 45.4611 33.5774 45.4611 30.2957 42.1795C27.0141 38.8979 27.0141 33.5774 30.2957 30.2958C33.5774 27.0142 38.8979 27.0142 42.1795 30.2958ZM79.3782 50.2128L50.2991 79.293C49.0787 80.5135 47.1001 80.5135 45.8796 79.2931C44.6592 78.0728 44.6592 76.0941 45.8796 74.8737L74.9587 45.7935C76.1791 44.5731 78.1578 44.5731 79.3782 45.7934C80.5986 47.0138 80.5986 48.9924 79.3782 50.2128Z" fill="#F44336"/>
</svg>
