<svg width="100" height="100" viewBox="0 0 100 100" fill="none" xmlns="http://www.w3.org/2000/svg">
<path fill-rule="evenodd" clip-rule="evenodd" d="M67.2357 19.7021L74.8592 27.3255C86.0633 38.5296 91.6654 44.1317 91.6654 51.093C91.6654 58.0544 86.0633 63.6564 74.8592 74.8605C63.6551 86.0647 58.053 91.6667 51.0917 91.6667C44.1304 91.6667 38.5283 86.0646 27.3242 74.8605L19.7007 67.2371C13.261 60.7973 10.0411 57.5775 8.84303 53.3999C7.64492 49.2224 8.66884 44.7854 10.7167 35.9115L11.8976 30.7941C13.6205 23.3284 14.4819 19.5956 17.038 17.0394C19.5942 14.4832 23.327 13.6218 30.7927 11.899L35.9102 10.718C44.7841 8.67018 49.2211 7.64627 53.3986 8.84437C57.5761 10.0425 60.796 13.2623 67.2357 19.7021ZM46.4432 59.7019C43.6391 56.8978 43.6629 52.8746 45.3398 49.6861C44.5018 48.4688 44.624 46.7896 45.7066 45.707C46.7852 44.6284 48.4561 44.5031 49.6724 45.3311C51.0885 44.5785 52.6444 44.1806 54.1948 44.1952C55.9206 44.2115 57.3065 45.6237 57.2902 47.3495C57.2739 49.0753 55.8617 50.4612 54.1359 50.4449C53.3988 50.438 52.43 50.7688 51.5992 51.5996C49.9844 53.2143 50.4091 54.829 50.8626 55.2824C51.3161 55.7359 52.9307 56.1606 54.5454 54.5459C57.8123 51.279 63.4526 50.1948 67.0671 53.8093C69.8711 56.6133 69.8474 60.6366 68.1705 63.8251C69.0085 65.0424 68.8862 66.7216 67.8037 67.8041C66.7248 68.883 65.0534 69.0081 63.8371 68.1795C61.9334 69.1912 59.7677 69.5704 57.703 69.1461C56.0124 68.7986 54.9236 67.1465 55.271 65.456C55.6184 63.7654 57.2705 62.6766 58.9611 63.024C59.6992 63.1757 60.8893 62.9334 61.9111 61.9116C63.5259 60.2968 63.1012 58.6822 62.6477 58.2287C62.1942 57.7752 60.5796 57.3506 58.9648 58.9653C55.698 62.2321 50.0577 63.3163 46.4432 59.7019ZM41.7527 42.888C45.0071 39.6337 45.0071 34.3573 41.7527 31.1029C38.4983 27.8486 33.222 27.8486 29.9676 31.1029C26.7132 34.3573 26.7132 39.6337 29.9676 42.888C33.222 46.1424 38.4983 46.1424 41.7527 42.888Z" fill="#F44336"/>
</svg>
