<svg width="100" height="100" viewBox="0 0 100 100" fill="none" xmlns="http://www.w3.org/2000/svg">
<path d="M62.9938 16.9167C63.3151 14.8929 65.06 13.4031 67.109 13.4031H83.0746C86.6027 13.3955 89.4689 16.2494 89.4765 19.7775C89.4773 20.1339 89.4483 20.4897 89.3897 20.8412L78.5987 89.2008C77.9851 93.0151 74.6983 95.823 70.835 95.8333H44.9439C34.275 95.8333 26.5764 93.2495 22.0598 88.1551C17.6988 83.1307 16.0237 76.3139 17.5595 69.8405C17.649 69.279 17.7386 68.7134 17.8728 68.0988C21.3029 50.5248 33.1031 41.1947 51.9792 41.1947H59.1407L62.9938 16.9167ZM81.1581 19.5351L81.1662 19.5066L81.1581 19.5351ZM70.363 87.931L70.3672 87.9226L70.363 87.931Z" fill="#B2B1FF"/>
<path d="M14.8487 70.398C15.541 71.1728 16.3016 71.8803 17.1195 72.5146C17.2107 71.6205 17.3483 70.7273 17.5587 69.8405C17.6482 69.279 17.738 68.7134 17.872 68.099C21.3022 50.5249 33.1023 41.1947 51.9785 41.1947H59.1399L62.993 16.9167C63.3142 14.8928 65.0592 13.4031 67.1082 13.4031H71.9735L72.3153 11.2345C72.3652 10.9192 72.3904 10.6003 72.3906 10.2809C72.3919 6.90536 69.6565 4.16794 66.281 4.16665H52.8044C49.1975 4.13615 46.1038 6.73295 45.5084 10.2905L42.8392 27.0874L42.7944 27.315H41.5493C24.7483 27.315 14.2544 35.6202 11.1945 51.3265C9.30137 57.9025 10.6586 64.9872 14.8487 70.398Z" fill="#615DFF"/>
</svg>
