<svg width="100" height="100" viewBox="0 0 100 100" fill="none" xmlns="http://www.w3.org/2000/svg">
<path d="M77.21 74.432C75.3314 74.4384 73.4702 74.0941 71.7337 73.419C69.9973 72.7439 68.4201 71.7514 67.0932 70.4988L52.4798 56.7254C51.9629 56.2598 51.2753 56 50.5602 56C49.845 56 49.1574 56.2598 48.6405 56.7254L33.9777 70.5366C32.6517 71.7911 31.0749 72.7856 29.3384 73.4627C27.602 74.1397 25.7403 74.486 23.861 74.4814H21L39.5175 91.9236C42.2948 94.534 46.058 96 49.9815 96C53.9049 96 57.6682 94.534 60.4454 91.9236L79 74.4437L77.21 74.432Z" fill="#32BCAD"/>
<path d="M23.8656 25.5018C25.7459 25.4971 27.6087 25.8431 29.3461 26.5199C31.0835 27.1967 32.6611 28.1909 33.9877 29.4449L48.6583 43.253C49.1682 43.7314 49.8589 44 50.579 44C51.299 44 51.9897 43.7314 52.4997 43.253L67.1178 29.4972C68.4433 28.2416 70.0206 27.2463 71.7582 26.5689C73.4958 25.8915 75.3591 25.5456 77.2399 25.5512H79L60.4356 8.08187C59.0609 6.78779 57.4287 5.76124 55.6323 5.06086C53.8359 4.36048 51.9105 4 49.966 4C48.0216 4 46.0961 4.36048 44.2997 5.06086C42.5034 5.76124 40.8712 6.78779 39.4965 8.08187L21 25.5018H23.8656Z" fill="#32BCAD"/>
<path d="M92.8164 39.4047L81.9967 28.05C81.7527 28.1547 81.492 28.2098 81.2283 28.2125H76.3084C73.7482 28.2193 71.294 29.2863 69.4795 31.1817L55.3808 45.9682C54.1111 47.2983 52.3904 48.0453 50.5964 48.0453C48.8024 48.0453 47.0817 47.2983 45.812 45.9682L31.6597 31.1254C29.8456 29.2289 27.3914 28.1607 24.8308 28.1531H18.7911C18.5422 28.1473 18.2962 28.0954 18.0644 28L7.17622 39.4047C4.50193 42.2173 3 46.0283 3 50.0016C3 53.9748 4.50193 57.7859 7.17622 60.5984L18.0406 72C18.2719 71.9028 18.5181 71.8509 18.7672 71.8469H24.8308C27.3913 71.839 29.8455 70.7708 31.6597 68.8746L45.809 54.0256C48.3672 51.3439 52.8256 51.3439 55.3808 54.0256L69.4795 68.8183C71.294 70.7137 73.7482 71.7808 76.3084 71.7875H81.2283C81.492 71.7894 81.7529 71.8446 81.9967 71.95L92.8164 60.5953C94.1427 59.2038 95.1949 57.5518 95.9127 55.7336C96.6305 53.9154 97 51.9666 97 49.9984C97 48.0303 96.6305 46.0815 95.9127 44.2633C95.1949 42.445 94.1427 40.793 92.8164 39.4016" fill="#32BCAD"/>
</svg>
