<svg width="100" height="100" viewBox="0 0 100 100" fill="none" xmlns="http://www.w3.org/2000/svg">
<path fill-rule="evenodd" clip-rule="evenodd" d="M50 48.9584C51.7259 48.9584 53.125 50.3575 53.125 52.0834V55.2084H56.25C57.9759 55.2084 59.375 56.6075 59.375 58.3334C59.375 60.0593 57.9759 61.4584 56.25 61.4584H53.125V64.5834C53.125 66.3093 51.7259 67.7084 50 67.7084C48.2741 67.7084 46.875 66.3093 46.875 64.5834V61.4584H43.75C42.0241 61.4584 40.625 60.0593 40.625 58.3334C40.625 56.6075 42.0241 55.2084 43.75 55.2084H46.875V52.0834C46.875 50.3575 48.2741 48.9584 50 48.9584Z" fill="#523DD5"/>
<path fill-rule="evenodd" clip-rule="evenodd" d="M49.782 5.20838C46.0384 5.20826 42.9166 5.20816 40.4384 5.54135C37.8226 5.89304 35.4609 6.66666 33.5631 8.56446C31.6653 10.4622 30.8917 12.8239 30.54 15.4397C30.2068 17.918 30.2069 21.0397 30.207 24.7834L30.207 25.1072C21.7855 25.3827 16.7283 26.3669 13.2136 29.8816C8.33203 34.7632 8.33203 42.6199 8.33203 58.3334C8.33203 74.0469 8.33203 81.9036 13.2136 86.7852C18.0951 91.6667 25.9519 91.6667 41.6653 91.6667H58.332C74.0455 91.6667 81.9023 91.6667 86.7838 86.7852C91.6654 81.9036 91.6654 74.0469 91.6654 58.3334C91.6654 42.6199 91.6654 34.7632 86.7838 29.8816C83.269 26.3669 78.2119 25.3827 69.7904 25.1072L69.7904 24.7834C69.7905 21.0398 69.7906 17.918 69.4574 15.4397C69.1057 12.8239 68.3321 10.4622 66.4343 8.56446C64.5365 6.66666 62.1748 5.89304 59.559 5.54135C57.0808 5.20816 53.9591 5.20826 50.2155 5.20838H49.782ZM63.5404 25.0079V25.0001C63.5404 20.9833 63.5337 18.2852 63.2631 16.2725C63.0046 14.3498 62.5579 13.5269 62.0149 12.9839C61.4719 12.4409 60.649 11.9941 58.7262 11.7356C56.7136 11.465 54.0154 11.4584 49.9987 11.4584C45.982 11.4584 43.2838 11.465 41.2712 11.7356C39.3484 11.9941 38.5255 12.4409 37.9825 12.9839C37.4395 13.5269 36.9928 14.3498 36.7343 16.2725C36.4637 18.2852 36.457 20.9833 36.457 25.0001V25.0079C38.0905 25.0001 39.824 25.0001 41.6654 25.0001H58.332C60.1734 25.0001 61.9069 25.0001 63.5404 25.0079ZM66.6654 58.3334C66.6654 67.5381 59.2034 75.0001 49.9987 75.0001C40.794 75.0001 33.332 67.5381 33.332 58.3334C33.332 49.1286 40.794 41.6667 49.9987 41.6667C59.2034 41.6667 66.6654 49.1286 66.6654 58.3334Z" fill="#523DD5"/>
</svg>
