<svg width="100" height="100" viewBox="0 0 100 100" fill="none" xmlns="http://www.w3.org/2000/svg">
<path fill-rule="evenodd" clip-rule="evenodd" d="M30.1876 8.33337H69.8124C74.6411 8.33337 77.0554 8.33337 79.0025 9.0109C82.6949 10.2957 85.5938 13.28 86.8419 17.0811C87.5 19.0857 87.5 21.5711 87.5 26.542V84.8925C87.5 88.4685 83.3958 90.3658 80.7996 87.9901C79.2743 86.5943 76.9757 86.5943 75.4504 87.9901L73.4375 89.832C70.7642 92.2783 66.7358 92.2783 64.0625 89.832C61.3892 87.3858 57.3608 87.3858 54.6875 89.832C52.0142 92.2783 47.9858 92.2783 45.3125 89.832C42.6392 87.3858 38.6108 87.3858 35.9375 89.832C33.2642 92.2783 29.2358 92.2783 26.5625 89.832L24.5496 87.9901C23.0243 86.5943 20.7257 86.5943 19.2004 87.9901C16.6042 90.3658 12.5 88.4685 12.5 84.8925V26.542C12.5 21.5711 12.5 19.0857 13.1581 17.0811C14.4062 13.28 17.3051 10.2957 20.9975 9.0109C22.9446 8.33337 25.3589 8.33337 30.1876 8.33337ZM62.7477 35.4147C63.8972 34.1273 63.7854 32.1518 62.498 31.0023C61.2106 29.8529 59.2351 29.9647 58.0856 31.2521L45.5357 45.308L41.9144 41.2521C40.7649 39.9647 38.7894 39.8529 37.502 41.0023C36.2146 42.1518 36.1028 44.1273 37.2523 45.4147L43.2047 52.0814C43.7975 52.7454 44.6455 53.1251 45.5357 53.1251C46.4259 53.1251 47.2739 52.7454 47.8668 52.0814L62.7477 35.4147ZM31.25 61.4584C29.5241 61.4584 28.125 62.8575 28.125 64.5834C28.125 66.3093 29.5241 67.7084 31.25 67.7084H68.75C70.4759 67.7084 71.875 66.3093 71.875 64.5834C71.875 62.8575 70.4759 61.4584 68.75 61.4584H31.25Z" fill="#1C274C"/>
</svg>
