<svg width="100" height="100" viewBox="0 0 100 100" fill="none" xmlns="http://www.w3.org/2000/svg">
<path d="M86.0417 37.5H11.0417C9.9366 37.5 8.87679 37.061 8.09539 36.2796C7.31399 35.4982 6.875 34.4384 6.875 33.3333V20.8333C6.875 19.0417 8.025 17.45 9.725 16.8833L47.225 4.38333C48.0792 4.09583 49.0042 4.09583 49.8625 4.38333L87.3625 16.8833C88.1914 17.1597 88.9123 17.69 89.4231 18.3989C89.9339 19.1079 90.2086 19.9596 90.2083 20.8333V33.3333C90.2083 34.4384 89.7694 35.4982 88.988 36.2796C88.2066 37.061 87.1467 37.5 86.0417 37.5ZM86.0417 91.6667H11.0417C9.9366 91.6667 8.87679 91.2277 8.09539 90.4463C7.31399 89.6649 6.875 88.6051 6.875 87.5V79.1667C6.87831 75.8525 8.19633 72.675 10.5398 70.3315C12.8833 67.988 16.0608 66.67 19.375 66.6667H77.7083C81.0225 66.67 84.2 67.988 86.5435 70.3315C88.887 72.675 90.205 75.8525 90.2083 79.1667V87.5C90.2083 88.6051 89.7694 89.6649 88.988 90.4463C88.2066 91.2277 87.1467 91.6667 86.0417 91.6667Z" fill="#539BFF"/>
<path d="M16.668 37.5V66.9833C17.543 66.7875 18.443 66.6667 19.3763 66.6667H77.7096C78.2096 66.6667 78.6846 66.7583 79.168 66.8167V37.5H16.668Z" fill="#D0E4FF"/>
<path d="M33.3346 66.6667V37.5H16.668V66.9833C17.543 66.7875 18.443 66.6667 19.3763 66.6667H33.3346ZM62.5013 37.5V66.6667H77.7096C78.2096 66.6667 78.6846 66.7583 79.168 66.8167V37.5H62.5013Z" fill="#9FC7FF"/>
</svg>
