<svg width="40" height="40" viewBox="0 0 100 100" fill="none" xmlns="http://www.w3.org/2000/svg">
<circle cx="50" cy="50" r="50" fill="#00E096"/>
<path d="M49.9385 69.9492C45.8587 69.9492 42.4737 69.0762 39.7835 67.3303C37.1112 65.5665 35.5167 62.9654 35 59.527L40.1844 59.2063C40.7545 61.3798 41.8947 63.01 43.605 64.0967C45.3153 65.1835 47.4176 65.7269 49.9118 65.7269C51.4083 65.7269 52.8069 65.4686 54.1074 64.9519C55.4258 64.4352 56.4858 63.7137 57.2875 62.7873C58.1071 61.8609 58.5168 60.7652 58.5168 59.5003C58.5168 57.8078 58.0091 56.4538 56.9936 55.4383C55.9959 54.4228 54.4014 53.6211 52.21 53.0331L45.5559 51.2961C42.6875 50.5657 40.416 49.4165 38.7413 47.8487C37.0666 46.281 36.2204 44.1787 36.2026 41.542C36.1847 39.315 36.7638 37.3552 37.9396 35.6627C39.1333 33.9702 40.7723 32.6519 42.8568 31.7076C44.959 30.7634 47.382 30.2913 50.1256 30.2913C52.7623 30.2913 55.0339 30.799 56.9401 31.8145C58.8642 32.8122 60.3519 34.1395 61.403 35.7964C62.4719 37.4532 63.042 39.2615 63.1133 41.2213L58.0893 41.4885C57.6973 39.1903 56.8511 37.4532 55.5505 36.2774C54.2678 35.0837 52.4595 34.4869 50.1256 34.4869C49.021 34.4869 47.9521 34.6294 46.9188 34.9145C45.9033 35.1817 44.9857 35.5915 44.1662 36.1438C43.3645 36.6961 42.7231 37.382 42.2421 38.2015C41.7611 39.021 41.5206 39.9742 41.5206 41.0609C41.5206 42.4506 42.0105 43.5551 42.9904 44.3747C43.9702 45.1764 45.734 45.9692 48.2817 46.7531L54.6954 48.5703C57.9735 49.4789 60.3073 50.8952 61.697 52.8193C63.1044 54.7256 63.8081 56.9348 63.8081 59.4468C63.8081 61.4956 63.2291 63.3128 62.0711 64.8985C60.9131 66.4662 59.2829 67.7044 57.1807 68.613C55.0962 69.5038 52.6822 69.9492 49.9385 69.9492ZM47.8541 25H52.4238V31.8947H47.8541V25ZM47.5334 68.1053H52.1032V75H47.5334V68.1053Z" fill="white"/>
</svg>
