<svg width="438" height="427" viewBox="0 0 438 427" fill="none" xmlns="http://www.w3.org/2000/svg">
<path d="M357.498 365.369C371.172 355.663 382.723 343.073 391.445 326.746C442.183 231.681 430.72 91.5056 333.002 31.3938C287.846 3.61509 222.827 -13.9718 174.023 14.5586C134.439 37.7057 110.164 81.2806 90.0901 120.92C77.4665 145.858 67.0757 172.686 51.5227 196.01C31.3491 226.265 9.15266 266.667 31.5702 301.819C62.1124 349.705 119.803 371.57 172.111 385.962C228.862 401.582 292.677 403.792 345.106 373.339C349.373 370.874 353.496 368.21 357.498 365.369Z" fill="#0FD2CB"/>
<path opacity="0.7" d="M357.498 365.369C371.172 355.663 382.723 343.073 391.445 326.746C442.183 231.681 430.72 91.5056 333.002 31.3938C287.846 3.61509 222.827 -13.9718 174.023 14.5586C134.439 37.7057 110.164 81.2806 90.0901 120.92C77.4665 145.858 67.0757 172.686 51.5227 196.01C31.3491 226.265 9.15266 266.667 31.5702 301.819C62.1124 349.705 119.803 371.57 172.111 385.962C228.862 401.582 292.677 403.792 345.106 373.339C349.373 370.874 353.496 368.21 357.498 365.369Z" fill="#D7F7F5"/>
<path d="M29.0347 397.459L0 397.459" stroke="#263238" stroke-miterlimit="10"/>
<path d="M407.893 397.458L38.4846 397.458" stroke="#263238" stroke-miterlimit="10"/>
<path d="M280.009 397.082L287.128 288.974L292.368 237.573L277.964 221.534L270.757 216.294C270.757 216.294 260.609 225.137 253.402 227.094C246.195 229.061 239.319 231.018 239.319 231.018C239.319 231.018 214.768 277.179 212.801 298.138C210.833 319.096 207.561 396.684 207.561 396.684L210.292 397.082H280.009Z" fill="#9E9E9E" stroke="#263238" stroke-miterlimit="10"/>
<path d="M246.262 307.954C246.262 307.954 245.035 307.324 247.489 301.001" stroke="#263238" stroke-miterlimit="10"/>
<path d="M243.376 229.891C243.376 229.891 245.399 243.708 245.399 256.232C245.399 256.232 252.772 253.281 258.664 242.968C264.556 232.654 267.032 225.668 267.032 225.668L243.376 229.891Z" fill="#263238" stroke="#263238" stroke-miterlimit="10"/>
<path d="M280.009 397.083L286.41 299.885C280.131 303.09 267.739 308.385 254.066 308.617C237.684 308.894 217.4 296.182 217.4 296.182L212.834 297.972C212.823 298.028 212.823 298.094 212.812 298.149C210.845 319.108 207.573 396.696 207.573 396.696L210.303 397.094H280.009V397.083Z" fill="white" stroke="#263238" stroke-miterlimit="10"/>
<path d="M269.386 342.697C269.386 367.734 270.248 391.821 270.447 397.083H318.698C319.361 389.267 323.518 340.751 325.651 323.297C327.984 304.284 343.282 275.953 343.282 265.86C343.282 255.768 346.388 257.327 332.416 249.954C318.444 242.581 287.614 226.663 283.347 224.717C279.081 222.772 274.427 218.118 274.427 218.118C274.427 218.118 275.974 227.824 275.588 254.21C275.212 280.606 269.386 314.365 269.386 342.697Z" fill="#0FD2CB"/>
<g opacity="0.2">
<path opacity="0.2" d="M274.438 218.118C274.438 218.118 275.079 222.12 275.433 231.958V219.058C274.814 218.494 274.438 218.118 274.438 218.118Z" fill="black"/>
<path opacity="0.2" d="M337.888 281.291V284.619C338.264 283.624 338.64 282.64 338.993 281.678V281.28H339.137C339.27 280.905 339.414 280.54 339.546 280.175H338.993V266.358H343.271C343.282 266.192 343.293 266.004 343.293 265.849C343.293 265.639 343.293 265.451 343.305 265.252H338.993V253.491C338.651 253.292 338.286 253.082 337.888 252.861V265.252H326.281V251.435H335.257C334.616 251.092 333.92 250.727 333.179 250.329H326.281V246.703C325.917 246.516 325.552 246.317 325.176 246.129V250.329H313.569V240.093C313.204 239.905 312.829 239.706 312.464 239.518V250.329H300.857V236.512H306.638C305.92 236.136 305.201 235.771 304.494 235.406H300.857V233.538C300.481 233.35 300.117 233.162 299.752 232.974V235.417H288.145V227.061C287.758 226.862 287.393 226.685 287.04 226.508V235.417H275.543C275.554 235.782 275.566 236.147 275.566 236.523H287.04V250.34H275.643C275.643 250.705 275.632 251.07 275.632 251.446H287.04V265.263H275.433V260.013C275.212 265.396 274.814 271.033 274.327 276.826V280.186H274.04C274.007 280.551 273.974 280.927 273.941 281.291H274.327V295.109H272.614C272.581 295.474 272.537 295.85 272.504 296.214H274.327V310.032H271.188C271.155 310.397 271.122 310.773 271.089 311.137H274.327V324.955H270.016C269.994 325.32 269.961 325.695 269.939 326.06H274.316V339.878H269.42C269.42 340.243 269.408 340.618 269.408 340.983H274.316V354.801H269.442C269.442 355.165 269.453 355.541 269.453 355.906H274.316V369.724H269.674C269.685 370.099 269.685 370.464 269.696 370.829H274.316V397.082H275.422V370.829H287.029V397.082H288.134V370.829H299.741V397.082H300.846V370.829H312.453V397.082H313.558V370.829H320.998C321.031 370.464 321.064 370.099 321.097 369.724H313.558V355.906H322.346C322.379 355.541 322.412 355.165 322.446 354.801H313.547V340.983H323.761C323.794 340.607 323.838 340.243 323.872 339.878H313.547V326.06H325.154V327.519C325.331 325.972 325.497 324.546 325.64 323.286C325.795 322.048 326.005 320.765 326.259 319.461V311.137H328.326C328.437 310.773 328.547 310.397 328.658 310.032H326.259V296.214H333.433C333.577 295.85 333.71 295.474 333.853 295.109H326.259V281.291H337.888ZM326.281 266.369H337.888V280.186H326.281V266.369ZM287.04 369.724H275.433V355.906H287.04V369.724ZM287.04 354.801H275.433V340.983H287.04V354.801ZM287.04 339.878H275.433V326.06H287.04V339.878ZM287.04 324.955H275.433V311.137H287.04V324.955ZM287.04 310.032H275.433V296.214H287.04V310.032ZM287.04 295.109H275.433V281.291H287.04V295.109ZM287.04 280.186H275.433V266.369H287.04V280.186ZM299.752 369.724H288.145V355.906H299.752V369.724ZM299.752 354.801H288.145V340.983H299.752V354.801ZM299.752 339.878H288.145V326.06H299.752V339.878ZM299.752 324.955H288.145V311.137H299.752V324.955ZM299.752 310.032H288.145V296.214H299.752V310.032ZM299.752 295.109H288.145V281.291H299.752V295.109ZM299.752 280.186H288.145V266.369H299.752V280.186ZM299.752 265.263H288.145V251.446H299.752V265.263ZM299.752 250.34H288.145V236.523H299.752V250.34ZM312.464 369.724H300.857V355.906H312.464V369.724ZM312.464 354.801H300.857V340.983H312.464V354.801ZM312.464 339.878H300.857V326.06H312.464V339.878ZM312.464 324.955H300.857V311.137H312.464V324.955ZM312.464 310.032H300.857V296.214H312.464V310.032ZM312.464 295.109H300.857V281.291H312.464V295.109ZM312.464 280.186H300.857V266.369H312.464V280.186ZM312.464 265.263H300.857V251.446H312.464V265.263ZM325.176 324.955H313.569V311.137H325.176V324.955ZM325.176 310.032H313.569V296.214H325.176V310.032ZM325.176 295.109H313.569V281.291H325.176V295.109ZM325.176 280.186H313.569V266.369H325.176V280.186ZM325.176 265.263H313.569V251.446H325.176V265.263Z" fill="black"/>
</g>
<path d="M269.386 342.697C269.386 367.734 270.248 391.821 270.447 397.083H318.698C319.361 389.267 323.518 340.751 325.651 323.297C327.984 304.284 343.282 275.953 343.282 265.86C343.282 255.768 346.388 257.327 332.416 249.954C318.444 242.581 287.614 226.663 283.347 224.717C279.081 222.772 274.427 218.118 274.427 218.118C274.427 218.118 275.974 227.824 275.588 254.21C275.212 280.606 269.386 314.365 269.386 342.697Z" stroke="#263238" stroke-miterlimit="10"/>
<path d="M274.438 218.118C274.438 218.118 275.985 227.824 275.598 254.21C275.499 260.864 275.057 267.994 274.449 275.389C275.775 273.565 280.053 267.74 281.037 267.408C282.198 267.021 288.41 272.847 293.451 273.62C298.491 274.394 300.437 274.394 294.998 268.58C289.56 262.754 287.238 245.687 285.293 232.875C284.751 229.294 284.121 226.685 283.48 224.784C283.436 224.762 283.391 224.74 283.347 224.728C279.091 222.783 274.438 218.118 274.438 218.118Z" fill="#263238" stroke="#263238" stroke-miterlimit="10"/>
<path d="M306.284 338.166C309.855 336.541 312.663 335.137 312.663 335.137L313.967 345.284C313.967 345.284 294.656 353.796 283.845 354.448C273.045 355.1 272.061 355.432 272.061 355.432L272.393 345.605" stroke="#263238" stroke-miterlimit="10"/>
<path d="M296.612 342.133C298.591 341.47 300.912 340.53 303.178 339.558" stroke="#263238" stroke-miterlimit="10"/>
<path d="M275.997 344.632C275.997 344.632 286.056 344.389 292.854 343.096" stroke="#263238" stroke-miterlimit="10"/>
<path d="M313.978 345.283L314.63 353.143" stroke="#263238" stroke-miterlimit="10"/>
<path d="M165.877 397.083H220.174C220.295 392.827 221.865 338.739 222.926 311.138C224.032 282.397 243.531 238.8 243.531 238.8C243.531 238.8 246.14 232.654 243.376 229.891C240.613 227.127 233.98 228.232 229.006 232.101C224.032 235.97 178.158 255.868 175.394 258.631C172.631 261.395 173.183 270.79 172.078 281.844C170.972 292.898 152.733 369.171 152.733 369.171C152.733 369.171 147.759 370.277 146.101 371.382C144.443 372.487 144.443 375.804 144.443 375.804C144.443 375.804 146.654 376.356 153.286 379.672C159.377 382.723 165.003 395.104 165.877 397.083Z" fill="#0FD2CB"/>
<path opacity="0.2" d="M236.191 251.446V257.084C236.567 256.067 236.932 255.083 237.297 254.132V251.435H238.336C238.479 251.059 238.623 250.694 238.767 250.33H237.297V236.512H244.261C244.349 236.17 244.426 235.794 244.493 235.407H237.308V228.465C236.943 228.509 236.578 228.575 236.202 228.664V235.407H224.595V234.644C224.242 234.832 223.877 235.02 223.49 235.208V235.396H223.114C222.418 235.749 221.677 236.114 220.903 236.501H223.49V250.319H211.883V240.834C211.519 241.011 211.154 241.177 210.778 241.354V250.308H199.171V246.781C198.806 246.958 198.431 247.124 198.066 247.301V250.308H191.643C190.848 250.683 190.063 251.048 189.3 251.413H198.066V265.23H186.459V252.806C186.083 252.983 185.719 253.16 185.354 253.336V265.275H173.747V262.489C173.117 265.485 172.94 269.729 172.642 274.66V280.198H172.244C172.211 280.562 172.177 280.938 172.144 281.303H172.642V295.121H169.668C169.591 295.485 169.513 295.85 169.436 296.226H172.642V310.043H166.44C166.363 310.408 166.275 310.784 166.197 311.149H172.642V324.966H163.08C162.991 325.331 162.914 325.707 162.826 326.072H172.642V339.889H161.035V333.865C160.659 335.479 160.294 337.071 159.93 338.64V339.889H159.642C159.554 340.254 159.465 340.63 159.388 340.995H159.93V354.812H156.149C156.061 355.188 155.972 355.553 155.884 355.918H159.93V369.735H150.545C149.461 370.034 148.19 370.421 147.195 370.841H147.217V376.843C147.549 376.987 147.914 377.141 148.323 377.318V370.829H159.93V386.294C160.316 386.847 160.681 387.399 161.035 387.963V370.841H172.642V397.094H173.747V370.841H185.354V397.094H186.459V370.841H198.066V397.094H199.171V370.841H210.778V397.094H211.883V370.841H220.959C220.97 370.476 220.981 370.1 220.992 369.735H211.883V355.918H221.423C221.434 355.553 221.445 355.177 221.456 354.812H211.883V340.995H221.898C221.909 340.63 221.92 340.254 221.931 339.889H211.883V326.072H222.396C222.407 325.696 222.418 325.331 222.429 324.966H211.872V311.149H222.926C222.937 310.784 222.96 310.408 222.982 310.043H211.872V296.226H223.479V304.384C223.766 302.029 224.131 299.608 224.584 297.154V296.215H224.761C224.828 295.85 224.905 295.474 224.971 295.109H224.584V281.292H228.288C228.387 280.927 228.498 280.551 228.597 280.187H224.584V266.369H232.897C233.019 266.004 233.151 265.628 233.273 265.264H224.584V251.446H236.191ZM224.584 236.523H236.191V250.341H224.584V236.523ZM172.631 369.724H161.024V355.907H172.631V369.724ZM172.631 354.801H161.024V340.984H172.631V354.801ZM185.343 369.724H173.736V355.907H185.343V369.724ZM185.343 354.801H173.736V340.984H185.343V354.801ZM185.343 339.878H173.736V326.061H185.343V339.878ZM185.343 324.955H173.736V311.138H185.343V324.955ZM185.343 310.032H173.736V296.215H185.343V310.032ZM185.343 295.109H173.736V281.292H185.343V295.109ZM185.343 280.187H173.736V266.369H185.343V280.187ZM198.055 369.724H186.448V355.907H198.055V369.724ZM198.055 354.801H186.448V340.984H198.055V354.801ZM198.055 339.878H186.448V326.061H198.055V339.878ZM198.055 324.955H186.448V311.138H198.055V324.955ZM198.055 310.032H186.448V296.215H198.055V310.032ZM198.055 295.109H186.448V281.292H198.055V295.109ZM198.055 280.187H186.448V266.369H198.055V280.187ZM210.767 369.724H199.16V355.907H210.767V369.724ZM210.767 354.801H199.16V340.984H210.767V354.801ZM210.767 339.878H199.16V326.061H210.767V339.878ZM210.767 324.955H199.16V311.138H210.767V324.955ZM210.767 310.032H199.16V296.215H210.767V310.032ZM210.767 295.109H199.16V281.292H210.767V295.109ZM210.767 280.187H199.16V266.369H210.767V280.187ZM210.767 265.264H199.16V251.446H210.767V265.264ZM223.479 295.109H211.872V281.292H223.479V295.109ZM223.479 280.187H211.872V266.369H223.479V280.187ZM223.479 265.264H211.872V251.446H223.479V265.264Z" fill="black"/>
<path d="M165.877 397.083H220.174C220.295 392.827 221.865 338.739 222.926 311.138C224.032 282.397 243.531 238.8 243.531 238.8C243.531 238.8 246.14 232.654 243.376 229.891C240.613 227.127 233.98 228.232 229.006 232.101C224.032 235.97 178.158 255.868 175.394 258.631C172.631 261.395 173.183 270.79 172.078 281.844C170.972 292.898 152.733 369.171 152.733 369.171C152.733 369.171 147.759 370.277 146.101 371.382C144.443 372.487 144.443 375.804 144.443 375.804C144.443 375.804 146.654 376.356 153.286 379.672C159.377 382.723 165.003 395.104 165.877 397.083Z" stroke="#263238" stroke-miterlimit="10"/>
<path d="M144.443 375.803C144.443 375.803 146.654 376.356 153.286 379.672C159.918 382.989 165.998 397.359 165.998 397.359H176.71C177.384 395.347 179.031 388.029 171.525 379.12C162.682 368.618 152.733 369.171 152.733 369.171C152.733 369.171 147.759 370.276 146.101 371.382C144.443 372.487 144.443 375.803 144.443 375.803Z" fill="#263238" stroke="#263238" stroke-miterlimit="10"/>
<path d="M236.7 228.576C234.323 234.865 228.696 249.092 224.032 255.868C217.952 264.711 206.898 271.896 210.767 275.212C214.636 278.529 225.69 268.027 225.69 268.027C225.69 268.027 228.453 275.765 229.006 277.976C229.028 278.064 229.083 278.153 229.15 278.252C235.229 257.36 243.531 238.801 243.531 238.801C243.531 238.801 246.14 232.654 243.376 229.891C241.939 228.454 239.452 228.078 236.7 228.576Z" fill="#263238" stroke="#263238" stroke-miterlimit="10"/>
<path d="M196.33 281.933C196.717 279.059 196.949 276.914 196.949 275.765" stroke="#263238" stroke-miterlimit="10"/>
<path d="M187.553 398.464C187.553 398.464 189.212 363.091 189.212 342.642C189.212 327.907 193.224 303.123 195.479 287.946" stroke="#263238" stroke-miterlimit="10"/>
<path d="M190.317 334.904C190.317 334.904 199.16 337.668 203.582 338.221C208.003 338.773 216.847 339.879 216.847 339.879L215.841 352.403C215.841 352.403 215.189 352.038 205.24 348.722C195.291 345.406 189.212 342.642 189.212 342.642" stroke="#263238" stroke-miterlimit="10"/>
<path d="M215.83 352.401C215.83 352.401 215.177 376.908 215.177 380.224C215.177 383.541 205.229 381.33 205.229 381.33" stroke="#263238" stroke-miterlimit="10"/>
<path d="M223.778 216.902C223.778 216.902 234.201 231.891 243.531 238.8C252.861 245.708 260.808 236.036 267.032 225.667C273.255 215.299 277.401 207.694 280.507 198.707C283.613 189.72 280.507 174.852 268.06 163.102C255.613 151.351 226.585 134.063 219.323 143.05C212.06 152.037 205.152 171.735 209.993 188.67C214.846 205.626 223.778 216.902 223.778 216.902Z" fill="#9E9E9E" stroke="#263238" stroke-miterlimit="10"/>
<path d="M219.389 184.658C219.389 184.658 225.204 182.635 231.449 184.658" stroke="#263238" stroke-width="2" stroke-miterlimit="10" stroke-linecap="round"/>
<path d="M228.31 193.91C228.641 195.7 228.221 197.292 227.37 197.436C226.53 197.591 225.579 196.264 225.248 194.462C224.916 192.672 225.336 191.08 226.187 190.936C227.027 190.781 227.978 192.108 228.31 193.91Z" fill="#263238"/>
<path d="M259.051 194.385C259.383 196.176 258.962 197.768 258.111 197.911C257.271 198.066 256.321 196.74 255.989 194.938C255.657 193.147 256.077 191.555 256.929 191.412C257.78 191.257 258.73 192.583 259.051 194.385Z" fill="#263238"/>
<path d="M236.269 218.759C236.269 218.759 241.453 220.837 248.715 220.483C255.978 220.14 262.19 214.956 262.19 214.956" stroke="#263238" stroke-miterlimit="10"/>
<path d="M220.417 150.699C220.417 150.699 235.771 185.719 237.683 186.68C239.607 187.642 243.443 176.124 243.443 176.124C243.443 176.124 248.715 185.719 254.961 188.593C261.195 191.467 263.119 186.669 263.119 186.669C263.119 186.669 269.84 190.505 272.238 192.428C274.637 194.352 274.637 194.352 274.637 194.352L277.036 202.985C277.036 202.985 269.84 226.497 272.238 229.371C274.637 232.245 288.068 228.409 288.068 228.409C288.068 228.409 284.707 233.207 289.029 233.207C293.351 233.207 301.023 234.168 312.055 219.29C323.087 204.422 324.048 180.435 324.048 180.435C324.048 180.435 329.321 186.194 329.808 178.998C330.283 171.802 323.573 159.808 323.573 159.808C323.573 159.808 334.13 170.365 333.168 159.333C332.206 148.301 325.972 135.821 323.573 132.947C321.174 130.073 306.782 121.915 306.782 121.915C306.782 121.915 312.541 120.953 308.219 114.243C303.897 107.523 288.068 105.61 282.308 105.61C276.549 105.61 264.556 107.534 264.556 107.534C264.556 107.534 272.227 92.6659 264.08 91.7042C255.923 90.7425 241.53 106.572 241.53 106.572C241.53 106.572 227.138 95.0536 222.816 97.4523C218.494 99.851 221.379 103.211 221.379 103.211C221.379 103.211 202.664 104.648 197.392 112.806C192.119 120.964 198.353 125.762 198.353 125.762C198.353 125.762 164.771 148.787 170.044 157.42C175.317 166.054 184.912 157.896 184.912 157.896C184.912 157.896 171.481 192.439 173.393 194.838C175.317 197.237 184.425 193.876 184.425 193.876C184.425 193.876 183.95 221.699 191.146 224.584C198.342 227.459 199.779 222.186 199.779 222.186C199.779 222.186 203.615 226.022 212.248 226.508C220.881 226.983 223.766 216.913 223.766 216.913C223.766 216.913 214.172 194.363 214.647 175.659C215.144 156.934 220.417 150.699 220.417 150.699Z" fill="#263238" stroke="#263238" stroke-miterlimit="10"/>
<path d="M239.729 191.102C239.729 191.102 236.269 209.075 239.032 212.878C241.796 216.681 251.479 212.878 252.164 210.8" fill="#9E9E9E"/>
<path d="M239.729 191.102C239.729 191.102 236.269 209.075 239.032 212.878C241.796 216.681 251.479 212.878 252.164 210.8" stroke="#263238" stroke-miterlimit="10"/>
<path d="M225.391 202.167C232.931 202.167 239.043 197.678 239.043 192.141C239.043 186.604 232.931 182.115 225.391 182.115C217.852 182.115 211.74 186.604 211.74 192.141C211.74 197.678 217.852 202.167 225.391 202.167Z" stroke="#263238" stroke-miterlimit="10"/>
<path d="M258.222 201.482C265.761 201.482 271.873 196.993 271.873 191.456C271.873 185.918 265.761 181.43 258.222 181.43C250.682 181.43 244.57 185.918 244.57 191.456C244.57 196.993 250.682 201.482 258.222 201.482Z" stroke="#263238" stroke-miterlimit="10"/>
<path d="M239.729 191.101C239.729 191.101 242.492 189.023 244.57 191.444" stroke="#263238" stroke-miterlimit="10"/>
<path d="M125.983 382.37C125.983 382.37 143.337 377.473 148.688 376.589C154.027 375.693 164.716 385.487 166.496 390.837C168.275 396.176 165.998 397.37 165.998 397.37L130.437 396.176L125.983 382.37Z" fill="#9E9E9E" stroke="#263238" stroke-miterlimit="10"/>
<path d="M132.272 380.645C132.272 380.645 145.371 385.553 148.643 387.52C151.915 389.488 150.932 393.412 148.975 395.38C147.007 397.347 142.099 399.304 140.795 399.304C139.491 399.304 135.555 399.635 131.631 399.304C127.707 398.972 124.103 399.635 120.831 399.635C117.559 399.635 107.732 398.652 107.732 398.652L104.781 396.684C104.781 396.684 99.2098 398.32 94.954 399.956C90.6982 401.592 92.0026 397.988 95.2856 395.369C98.5576 392.749 106.749 386.205 108.053 385.542C109.357 384.889 126.06 379.981 126.06 379.981L132.272 380.645Z" fill="#9E9E9E" stroke="#263238" stroke-miterlimit="10"/>
<path d="M137.18 381.95C137.18 381.95 128.669 378.025 126.381 378.025C124.092 378.025 107.721 383.597 105.422 385.233C103.134 386.869 100.835 402.587 102.471 403.571C104.107 404.555 105.422 401.604 105.743 399.647C106.074 397.679 110.651 387.211 110.651 387.211L107.379 403.903C107.379 403.903 108.683 406.523 109.999 404.234C111.303 401.946 119.494 386.227 120.146 385.244C120.798 384.26 123.098 382.955 123.098 382.955C123.098 382.955 121.462 390.163 120.146 397.038C118.842 403.914 119.815 405.881 121.782 406.202C123.75 406.534 124.734 401.946 125.706 399.658C126.69 397.37 130.946 384.271 130.946 384.271" fill="#9E9E9E"/>
<path d="M137.18 381.95C137.18 381.95 128.669 378.025 126.381 378.025C124.092 378.025 107.721 383.597 105.422 385.233C103.134 386.869 100.835 402.587 102.471 403.571C104.107 404.555 105.422 401.604 105.743 399.647C106.074 397.679 110.651 387.211 110.651 387.211L107.379 403.903C107.379 403.903 108.683 406.523 109.999 404.234C111.303 401.946 119.494 386.227 120.146 385.244C120.798 384.26 123.098 382.955 123.098 382.955C123.098 382.955 121.462 390.163 120.146 397.038C118.842 403.914 119.815 405.881 121.782 406.202C123.75 406.534 124.734 401.946 125.706 399.658C126.69 397.37 130.946 384.271 130.946 384.271" stroke="#263238" stroke-miterlimit="10"/>
<path d="M146.676 388.505C146.676 388.505 136.849 398.652 135.544 400.94C134.24 403.229 134.24 403.56 137.832 403.56C141.436 403.56 152.567 396.353 153.551 395.38C154.535 394.397 154.203 391.456 151.915 389.489C149.627 387.521 146.676 388.505 146.676 388.505Z" fill="#9E9E9E" stroke="#263238" stroke-miterlimit="10"/>
<path d="M207.959 387.378C207.959 387.378 194.86 391.611 191.643 394.021C188.416 396.442 183.784 399.062 184.79 399.869C185.796 400.675 189.024 399.869 190.03 399.062C191.036 398.255 195.667 397.448 195.667 397.448C195.667 397.448 201.106 394.22 205.339 391.6C209.573 388.991 212.79 386.162 207.959 387.378Z" fill="#9E9E9E" stroke="#263238" stroke-miterlimit="10"/>
<path d="M280.253 365.203C280.253 365.203 243.774 371.802 230.576 376.456C217.377 381.11 212.127 384.327 205.539 388.98C198.939 393.634 185.564 402.455 187.498 404.014C189.444 405.561 196.43 400.134 197.591 398.973C198.751 397.812 207.296 394.319 207.296 394.319L212.989 391.412C212.989 391.412 204.411 401.991 201.305 404.71C198.199 407.429 200.31 409.076 202.631 408.292C204.964 407.518 209.363 402.897 209.363 402.897L223.59 393.546C223.59 393.546 217.764 401.692 215.056 404.025C212.337 406.357 218.162 408.292 219.323 406.357C220.484 404.412 226.309 399.371 226.309 399.371C226.309 399.371 236.014 394.33 238.336 392.385C240.668 390.439 246.483 385.012 246.483 385.012L289.947 388.505C289.947 388.505 292.666 386.957 291.108 378.026C289.571 369.094 280.253 365.203 280.253 365.203Z" fill="#9E9E9E" stroke="#263238" stroke-miterlimit="10"/>
<path d="M309.756 296.513L331.101 349.296L296.557 361.323L306.263 389.654C306.263 389.654 331.068 389.72 350.468 388.56C369.867 387.399 383.497 375.682 380.391 361.72C377.285 347.748 365.645 327.564 356.326 303.51C347.008 279.445 349.893 265.097 345.626 257.724C341.359 250.351 329.321 248.406 329.321 248.406L322.722 247.245" fill="#0FD2CB"/>
<path opacity="0.2" d="M377.13 376.4V370.829H380.015C380.125 370.464 380.236 370.1 380.324 369.724H377.13V355.906H378.744C378.622 355.541 378.489 355.166 378.357 354.801H377.119V351.418C376.765 350.501 376.4 349.572 376.013 348.622V354.801H364.407V340.983H372.741C372.576 340.619 372.421 340.254 372.255 339.878H364.407V326.06H365.954C365.788 325.685 365.623 325.331 365.446 324.955H364.407V322.645C364.042 321.827 363.666 321.009 363.301 320.18V324.955H351.695V311.138H359.399C359.244 310.773 359.09 310.397 358.946 310.032H351.695V296.215H353.762C353.64 295.85 353.529 295.474 353.419 295.109H351.695V288.831C351.274 287.084 350.91 285.415 350.589 283.812V295.109H338.982V281.292H350.125C350.059 280.916 349.992 280.551 349.937 280.186H338.993V266.369H348.069C348.014 265.993 347.958 265.628 347.903 265.263H338.993V251.733C337.988 251.192 336.982 250.727 336.009 250.34H326.281V247.853L325.176 247.654V250.329H321.915L321.628 251.435H325.187V265.252H317.991L317.703 266.358H325.187V280.175H314.045L313.757 281.281H325.176V295.098H313.569V282.01L312.464 286.211V295.098H310.12L309.833 296.204H312.464V303.201L313.569 305.931V296.204H325.176V310.021H315.227L315.669 311.126H325.176V324.944H321.263L321.705 326.049H325.176V334.638L326.281 337.369V326.049H337.888V339.867H327.287L327.729 340.972H337.877V354.79H326.27V350.965L325.165 351.352V354.801H315.283L312.11 355.906H312.464V369.724H300.857V359.83L299.752 360.217V369.724H299.431L300.857 373.869V370.829H312.464V389.632C312.818 389.632 313.193 389.632 313.569 389.621V370.818H325.176V389.466C325.541 389.455 325.906 389.455 326.281 389.444V370.818H337.888V389.124C338.253 389.112 338.629 389.101 338.993 389.079V370.807H350.6V388.527C350.976 388.505 351.341 388.471 351.706 388.438V370.807H363.312V385.973C363.688 385.841 364.053 385.697 364.418 385.553V370.807H376.024V377.749C376.411 377.318 376.776 376.865 377.13 376.4ZM325.176 369.724H313.569V355.906H325.176V369.724ZM337.888 369.724H326.281V355.906H337.888V369.724ZM337.888 324.955H326.281V311.138H337.888V324.955ZM337.888 310.032H326.281V296.215H337.888V310.032ZM337.888 295.109H326.281V281.292H337.888V295.109ZM337.888 280.186H326.281V266.369H337.888V280.186ZM337.888 265.263H326.281V251.446H337.888V265.263ZM350.6 369.724H338.993V355.906H350.6V369.724ZM350.6 354.801H338.993V340.983H350.6V354.801ZM350.6 339.878H338.993V326.06H350.6V339.878ZM350.6 324.955H338.993V311.138H350.6V324.955ZM350.6 310.032H338.993V296.215H350.6V310.032ZM363.312 369.724H351.706V355.906H363.312V369.724ZM363.312 354.801H351.706V340.983H363.312V354.801ZM363.312 339.878H351.706V326.06H363.312V339.878ZM364.418 369.724V355.906H376.024V369.724H364.418Z" fill="#263238"/>
<path d="M309.756 296.513L331.101 349.296L296.557 361.323L306.263 389.654C306.263 389.654 331.068 389.72 350.468 388.56C369.867 387.399 383.497 375.682 380.391 361.72C377.285 347.748 365.645 327.564 356.326 303.51C347.008 279.445 349.893 265.097 345.626 257.724C341.359 250.351 329.321 248.406 329.321 248.406L322.722 247.245" stroke="#263238" stroke-miterlimit="10"/>
<path d="M351.883 343.934C342.266 345.504 331.101 349.296 331.101 349.296C331.101 349.296 345.847 339.59 353.994 338.816" stroke="#263238" stroke-miterlimit="10"/>
<path d="M361.754 343.47C360.449 343.249 358.88 343.205 357.133 343.315" stroke="#263238" stroke-miterlimit="10"/>
<path d="M306.649 357.056C306.649 357.056 314.487 364.551 316.819 370.376C319.152 376.202 318.289 391.987 316.742 393.534C315.194 395.082 286.31 394.894 281.557 388.947C280.319 387.399 288.797 383.829 284.53 375.284C280.264 366.75 278.318 365.966 278.318 365.966C278.318 365.966 274.825 364.02 281.424 359.753C288.023 355.508 303.156 352.402 306.649 357.056Z" fill="#263238" stroke="#263238" stroke-miterlimit="10"/>
<path d="M375.461 416.891H346.809L343.227 360.25H379.042L375.461 416.891Z" fill="#263238" stroke="#263238" stroke-miterlimit="10" stroke-linejoin="round"/>
<path d="M380.623 360.338H341.635V368.584H380.623V360.338Z" fill="white" stroke="#263238" stroke-miterlimit="10" stroke-linejoin="round"/>
<path d="M380.623 360.659H341.635L345.537 355.762H376.732L380.623 360.659Z" fill="white" stroke="#263238" stroke-miterlimit="10" stroke-linejoin="round"/>
<path d="M376.51 400.277L377.936 377.716H344.332L345.758 400.277H376.51Z" fill="white" stroke="#263238" stroke-miterlimit="10" stroke-linejoin="round"/>
<path d="M210.347 420.661L245.653 411.331V416.106L210.347 426V420.661Z" fill="#263238" stroke="#263238" stroke-miterlimit="10" stroke-linejoin="round"/>
<path d="M245.653 411.331H61.0622L25.3799 420.661H210.347L245.653 411.331Z" fill="white" stroke="#263238" stroke-miterlimit="10" stroke-linejoin="round"/>
<path d="M210.347 313.99H25.3799V426.001H210.347V313.99Z" fill="white" stroke="#263238" stroke-miterlimit="10" stroke-linejoin="round"/>
<path d="M210.347 330.195C170.11 332.108 146.134 369.194 110.54 394.043C78.0854 416.704 38.0036 420.529 25.3799 421.181V426H210.347V330.195Z" fill="#263238" stroke="#263238" stroke-miterlimit="10" stroke-linejoin="round"/>
<path d="M210.347 420.661H25.3799V426H210.347V420.661Z" fill="white" stroke="#263238" stroke-miterlimit="10"/>
<path d="M394.975 359.189C394.975 359.189 379.566 334.527 391.891 320.666C404.216 306.793 424.257 313.469 428.358 326.314C432.47 339.159 423.738 360.725 423.738 360.725L394.975 359.189Z" fill="#00BFB3" stroke="#263238" stroke-miterlimit="10" stroke-linecap="round" stroke-linejoin="round"/>
<path d="M395.495 330.935C392.93 330.935 383.169 327.342 380.085 322.71C377.001 318.09 376.493 307.81 385.226 307.81C393.958 307.81 397.042 323.219 397.042 323.219L397.551 328.867" fill="#00BFB3"/>
<path d="M395.495 330.935C392.93 330.935 383.169 327.342 380.085 322.71C377.001 318.09 376.493 307.81 385.226 307.81C393.958 307.81 397.042 323.219 397.042 323.219L397.551 328.867" stroke="#263238" stroke-miterlimit="10" stroke-linecap="round" stroke-linejoin="round"/>
<path d="M403.398 321.34C401.099 320.19 393.969 312.618 393.273 307.102C392.576 301.586 396.699 292.168 404.515 296.059C412.33 299.961 408.207 315.127 408.207 315.127L406.14 320.411" fill="#00BFB3"/>
<path d="M403.398 321.34C401.099 320.19 393.969 312.618 393.273 307.102C392.576 301.586 396.699 292.168 404.515 296.059C412.33 299.961 408.207 315.127 408.207 315.127L406.14 320.411" stroke="#263238" stroke-miterlimit="10" stroke-linecap="round" stroke-linejoin="round"/>
<path d="M412.717 323.927C411.446 321.694 409.71 311.435 412.197 306.472C414.673 301.498 423.34 295.949 427.673 303.532C432.006 311.115 420.167 321.439 420.167 321.439L415.525 324.689" fill="#00BFB3"/>
<path d="M412.717 323.927C411.446 321.694 409.71 311.435 412.197 306.472C414.673 301.498 423.34 295.949 427.673 303.532C432.006 311.115 420.167 321.439 420.167 321.439L415.525 324.689" stroke="#263238" stroke-miterlimit="10" stroke-linecap="round" stroke-linejoin="round"/>
<path d="M415.79 342.343C415.359 339.812 417.293 329.587 421.339 325.784C425.385 321.982 435.433 319.771 436.881 328.382C438.329 336.993 423.638 342.586 423.638 342.586L418.155 344.034" fill="#00BFB3"/>
<path d="M415.79 342.343C415.359 339.812 417.293 329.587 421.339 325.784C425.385 321.982 435.433 319.771 436.881 328.382C438.329 336.993 423.638 342.586 423.638 342.586L418.155 344.034" stroke="#263238" stroke-miterlimit="10" stroke-linecap="round" stroke-linejoin="round"/>
<path d="M381.213 316.521L382.948 319.251" stroke="white" stroke-miterlimit="10" stroke-linecap="round" stroke-linejoin="round"/>
<path d="M386.165 323.219L388.895 325.441" stroke="white" stroke-miterlimit="10" stroke-linecap="round" stroke-linejoin="round"/>
<path d="M383.192 311.313L385.922 315.282" stroke="white" stroke-miterlimit="10" stroke-linecap="round" stroke-linejoin="round"/>
<path d="M389.636 318.51L392.61 323.959" stroke="white" stroke-miterlimit="10" stroke-linecap="round" stroke-linejoin="round"/>
<path d="M396.578 305.366L397.573 308.34" stroke="white" stroke-miterlimit="10" stroke-linecap="round" stroke-linejoin="round"/>
<path d="M400.049 313.789L401.784 316.276" stroke="white" stroke-miterlimit="10" stroke-linecap="round" stroke-linejoin="round"/>
<path d="M399.308 299.42L401.541 304.372" stroke="white" stroke-miterlimit="10" stroke-linecap="round" stroke-linejoin="round"/>
<path d="M390.631 334.372L391.371 338.827" stroke="white" stroke-miterlimit="10" stroke-linecap="round" stroke-linejoin="round"/>
<path d="M392.864 343.038L393.848 346.763" stroke="white" stroke-miterlimit="10" stroke-linecap="round" stroke-linejoin="round"/>
<path d="M395.34 334.616L396.335 339.568" stroke="white" stroke-miterlimit="10" stroke-linecap="round" stroke-linejoin="round"/>
<path d="M398.557 343.038L399.308 346.763" stroke="white" stroke-miterlimit="10" stroke-linecap="round" stroke-linejoin="round"/>
<path d="M400.292 328.171L401.784 335.113" stroke="white" stroke-miterlimit="10" stroke-linecap="round" stroke-linejoin="round"/>
<path d="M403.763 341.801L404.017 345.029" stroke="white" stroke-miterlimit="10" stroke-linecap="round" stroke-linejoin="round"/>
<path d="M406.493 325.938L407.731 332.382" stroke="white" stroke-miterlimit="10" stroke-linecap="round" stroke-linejoin="round"/>
<path d="M407.731 339.082L408.229 345.77" stroke="white" stroke-miterlimit="10" stroke-linecap="round" stroke-linejoin="round"/>
<path d="M413.678 328.414V333.875" stroke="white" stroke-miterlimit="10" stroke-linecap="round" stroke-linejoin="round"/>
<path d="M412.938 340.816L413.181 345.028" stroke="white" stroke-miterlimit="10" stroke-linecap="round" stroke-linejoin="round"/>
<path d="M419.88 302.636L418.642 305.62" stroke="white" stroke-miterlimit="10" stroke-linecap="round" stroke-linejoin="round"/>
<path d="M418.144 309.08L416.906 313.303" stroke="white" stroke-miterlimit="10" stroke-linecap="round" stroke-linejoin="round"/>
<path d="M425.329 308.34L423.351 312.308" stroke="white" stroke-miterlimit="10" stroke-linecap="round" stroke-linejoin="round"/>
<path d="M419.139 316.774L416.906 319.251" stroke="white" stroke-miterlimit="10" stroke-linecap="round" stroke-linejoin="round"/>
<path d="M414.43 308.097L413.678 311.313" stroke="white" stroke-miterlimit="10" stroke-linecap="round" stroke-linejoin="round"/>
<path d="M425.329 325.938L422.599 330.403" stroke="white" stroke-miterlimit="10" stroke-linecap="round" stroke-linejoin="round"/>
<path d="M420.864 333.123L419.382 337.091" stroke="white" stroke-miterlimit="10" stroke-linecap="round" stroke-linejoin="round"/>
<path d="M423.096 339.082L427.562 336.595" stroke="white" stroke-miterlimit="10" stroke-linecap="round" stroke-linejoin="round"/>
<path d="M430.293 325.938L428.06 329.663" stroke="white" stroke-miterlimit="10" stroke-linecap="round" stroke-linejoin="round"/>
<path d="M432.515 330.15L429.541 332.383" stroke="white" stroke-miterlimit="10" stroke-linecap="round" stroke-linejoin="round"/>
<path d="M429.309 350.588H387.171V392.726H429.309V350.588Z" fill="#263238" stroke="#263238" stroke-miterlimit="10" stroke-linecap="round" stroke-linejoin="round"/>
</svg>
