<svg width="300" height="306" viewBox="0 0 300 306" fill="none" xmlns="http://www.w3.org/2000/svg">
<g clip-path="url(#clip0_541_938)">
<path d="M246.247 261.649C255.634 254.677 263.564 245.633 269.552 233.905C304.385 165.62 296.516 64.9306 229.429 21.7519C198.429 1.79845 153.791 -10.8343 120.286 9.65905C93.1105 26.2859 76.4449 57.5861 62.6637 86.0593C53.9972 103.972 46.8637 123.243 36.186 139.997C22.3363 161.729 7.09784 190.75 22.4881 216C43.4563 250.397 83.0623 266.103 118.973 276.441C157.934 287.661 201.745 289.248 237.739 267.373C240.669 265.603 243.499 263.689 246.247 261.649Z" fill="#8395EE"/>
<path d="M20.7474 284.699H0.814209" stroke="#263238" stroke-width="1.00006" stroke-miterlimit="22.9256"/>
<path d="M280.844 284.698H27.2351" stroke="#263238" stroke-width="1.00006" stroke-miterlimit="22.9256"/>
<path d="M193.049 284.428L197.936 206.774L201.533 169.852L191.645 158.331L186.697 154.567C186.697 154.567 179.73 160.919 174.782 162.325C169.834 163.738 165.114 165.143 165.114 165.143C165.114 165.143 148.259 198.301 146.908 213.356C145.557 228.41 143.311 284.142 143.311 284.142L145.186 284.428H193.049Z" fill="#FFA589" stroke="#263238" stroke-width="1.00006" stroke-miterlimit="22.9256"/>
<path d="M169.88 220.407C169.88 220.407 169.038 219.955 170.722 215.413" stroke="#263238" stroke-width="1.00006" stroke-miterlimit="22.9256"/>
<path d="M167.899 164.334C167.899 164.334 169.288 174.258 169.288 183.255C169.288 183.255 174.349 181.135 178.394 173.727C182.44 166.318 184.139 161.3 184.139 161.3L167.899 164.334Z" fill="#263238" stroke="#263238" stroke-width="1.00006" stroke-miterlimit="22.9256"/>
<path d="M193.049 284.429L197.443 214.611C193.132 216.913 184.625 220.717 175.238 220.883C163.991 221.082 150.066 211.951 150.066 211.951L146.931 213.237C146.923 213.277 146.923 213.325 146.916 213.364C145.565 228.419 143.319 284.151 143.319 284.151L145.193 284.437H193.049V284.429Z" fill="white" stroke="#263238" stroke-width="1.00006" stroke-miterlimit="22.9256"/>
<path d="M185.755 248.078C185.755 266.062 186.347 283.364 186.484 287.144H219.609C220.064 281.529 222.918 246.68 224.383 234.143C225.985 220.485 236.487 200.135 236.487 192.885C236.487 185.636 238.619 186.756 229.027 181.46C219.435 176.164 198.269 164.73 195.34 163.332C192.411 161.935 189.216 158.592 189.216 158.592C189.216 158.592 190.278 165.564 190.013 184.517C189.755 203.477 185.755 227.727 185.755 248.078Z" fill="#FEDFBF"/>
<path d="M189.224 155.877C189.224 155.877 189.664 158.752 189.907 165.818V156.552C189.482 156.147 189.224 155.877 189.224 155.877Z" fill="black" fill-opacity="0.039216"/>
<path d="M185.755 248.078C185.755 266.062 186.347 283.364 186.484 287.144H219.609C220.064 281.529 222.918 246.68 224.383 234.143C225.985 220.485 236.487 200.135 236.487 192.885C236.487 185.636 238.619 186.756 229.027 181.46C219.435 176.164 198.269 164.73 195.34 163.332C192.411 161.935 189.216 158.592 189.216 158.592C189.216 158.592 190.278 165.564 190.013 184.517C189.755 203.477 185.755 227.727 185.755 248.078V248.078Z" stroke="#263238" stroke-width="1.00006" stroke-miterlimit="22.9256"/>
<path d="M211.087 242.108C213.539 240.941 215.466 239.933 215.466 239.933L216.362 247.221C216.362 247.221 203.104 253.336 195.682 253.804C188.267 254.272 187.592 254.511 187.592 254.511L187.82 247.452" stroke="#263238" stroke-width="1.00006" stroke-miterlimit="22.9256"/>
<path d="M204.447 244.958C205.806 244.482 207.399 243.807 208.955 243.108" stroke="#263238" stroke-width="1.00006" stroke-miterlimit="22.9256"/>
<path d="M190.294 246.753C190.294 246.753 197.2 246.578 201.867 245.649" stroke="#263238" stroke-width="1.00006" stroke-miterlimit="22.9256"/>
<path d="M216.369 247.221L216.817 252.867" stroke="#263238" stroke-width="1.00006" stroke-miterlimit="22.9256"/>
<path d="M114.693 287.144H151.97C152.053 284.087 153.131 245.235 153.859 225.409C154.619 204.764 168.005 173.448 168.005 173.448C168.005 173.448 169.796 169.033 167.899 167.049C166.002 165.063 161.448 165.857 158.033 168.636C154.619 171.415 123.125 185.708 121.227 187.693C119.33 189.678 119.709 196.427 118.951 204.367C118.191 212.307 105.67 267.095 105.67 267.095C105.67 267.095 102.255 267.889 101.117 268.683C99.9785 269.476 99.9785 271.859 99.9785 271.859C99.9785 271.859 101.496 272.256 106.049 274.637C110.231 276.829 114.093 285.722 114.693 287.144Z" fill="#FEDFBF"/>
<path d="M162.966 182.532V186.582C163.224 185.851 163.475 185.144 163.726 184.461V182.524H164.439C164.537 182.254 164.636 181.992 164.735 181.73H163.726V171.805H168.506C168.567 171.559 168.62 171.289 168.666 171.011H163.733V166.024C163.482 166.056 163.232 166.103 162.974 166.167V171.011H155.005V170.463C154.763 170.598 154.512 170.733 154.247 170.868V171.003H153.988C153.51 171.256 153.002 171.519 152.471 171.797H154.247V181.722H146.278V174.909C146.028 175.036 145.778 175.156 145.519 175.283V181.714H137.551V179.181C137.3 179.308 137.043 179.427 136.792 179.554V181.714H132.383C131.837 181.984 131.298 182.246 130.774 182.508H136.792V192.433H128.824V183.509C128.566 183.636 128.316 183.763 128.065 183.889V192.465H120.097V190.464C119.664 192.616 119.543 195.665 119.338 199.207V203.185H119.065C119.042 203.446 119.019 203.716 118.996 203.978H119.338V213.904H117.296C117.243 214.165 117.19 214.427 117.137 214.698H119.338V224.622H115.08C115.027 224.884 114.967 225.155 114.913 225.417H119.338V235.342H112.773C112.712 235.604 112.659 235.874 112.599 236.136H119.338V246.061H111.369V241.734C111.111 242.893 110.861 244.037 110.611 245.164V246.061H110.413C110.353 246.323 110.292 246.593 110.239 246.856H110.611V256.78H108.015C107.955 257.05 107.893 257.313 107.833 257.575H110.611V267.5H104.168C103.423 267.714 102.551 267.992 101.868 268.294H101.883V272.605C102.111 272.709 102.361 272.819 102.642 272.946V268.285H110.611V279.394C110.876 279.791 111.127 280.188 111.369 280.593V268.294H119.338V287.152H120.097V268.294H128.065V287.152H128.824V268.294H136.792V287.152H137.551V268.294H145.519V287.152H146.278V268.294H152.509C152.516 268.032 152.524 267.762 152.532 267.5H146.278V257.575H152.828C152.835 257.313 152.843 257.043 152.85 256.78H146.278V246.856H153.154C153.161 246.593 153.169 246.323 153.176 246.061H146.278V236.136H153.495C153.503 235.866 153.51 235.604 153.518 235.342H146.271V225.417H153.859C153.867 225.155 153.883 224.884 153.898 224.622H146.271V214.698H154.239V220.558C154.436 218.866 154.687 217.127 154.998 215.364V214.69H155.119C155.165 214.427 155.218 214.158 155.263 213.895H154.998V203.97H157.541C157.608 203.708 157.685 203.438 157.753 203.177H154.998V193.251H160.705C160.789 192.989 160.879 192.719 160.963 192.457H154.998V182.532H162.966ZM154.998 171.812H162.966V181.738H154.998V171.812ZM119.33 267.492H111.362V257.567H119.33V267.492ZM119.33 256.772H111.362V246.847H119.33V256.772ZM128.058 267.492H120.089V257.567H128.058V267.492ZM128.058 256.772H120.089V246.847H128.058V256.772ZM128.058 246.053H120.089V236.128H128.058V246.053ZM128.058 235.334H120.089V225.409H128.058V235.334ZM128.058 224.615H120.089V214.69H128.058V224.615ZM128.058 213.895H120.089V203.97H128.058V213.895ZM128.058 203.177H120.089V193.251H128.058V203.177ZM136.785 267.492H128.816V257.567H136.785V267.492ZM136.785 256.772H128.816V246.847H136.785V256.772ZM136.785 246.053H128.816V236.128H136.785V246.053ZM136.785 235.334H128.816V225.409H136.785V235.334ZM136.785 224.615H128.816V214.69H136.785V224.615ZM136.785 213.895H128.816V203.97H136.785V213.895ZM136.785 203.177H128.816V193.251H136.785V203.177ZM145.512 267.492H137.543V257.567H145.512V267.492ZM145.512 256.772H137.543V246.847H145.512V256.772ZM145.512 246.053H137.543V236.128H145.512V246.053ZM145.512 235.334H137.543V225.409H145.512V235.334ZM145.512 224.615H137.543V214.69H145.512V224.615ZM145.512 213.895H137.543V203.97H145.512V213.895ZM145.512 203.177H137.543V193.251H145.512V203.177ZM145.512 192.457H137.543V182.532H145.512V192.457ZM154.239 213.895H146.271V203.97H154.239V213.895ZM154.239 203.177H146.271V193.251H154.239V203.177ZM154.239 192.457H146.271V182.532H154.239V192.457Z" fill="black" fill-opacity="0.2"/>
<path d="M114.693 287.144H151.97C152.053 284.087 153.131 245.235 153.859 225.409C154.619 204.764 168.005 173.448 168.005 173.448C168.005 173.448 169.796 169.033 167.899 167.049C166.002 165.063 161.448 165.857 158.033 168.636C154.619 171.415 123.125 185.708 121.227 187.693C119.33 189.678 119.709 196.427 118.951 204.367C118.191 212.307 105.67 267.095 105.67 267.095C105.67 267.095 102.255 267.889 101.117 268.683C99.9785 269.476 99.9785 271.859 99.9785 271.859C99.9785 271.859 101.496 272.256 106.049 274.637C110.231 276.829 114.093 285.722 114.693 287.144V287.144Z" stroke="#263238" stroke-width="1.00006" stroke-miterlimit="22.9256"/>
<path d="M99.9785 269.143C99.9785 269.143 101.496 269.541 106.049 271.922C110.602 274.305 114.777 284.627 114.777 284.627H122.131C122.593 283.182 123.724 277.925 118.571 271.526C112.5 263.982 105.67 264.38 105.67 264.38C105.67 264.38 102.255 265.173 101.117 265.968C99.9785 266.761 99.9785 269.143 99.9785 269.143Z" fill="#263238" stroke="#263238" stroke-width="1.00006" stroke-miterlimit="22.9256"/>
<path d="M135.6 201.716C135.866 199.652 136.025 198.111 136.025 197.286" stroke="#263238" stroke-width="1.00006" stroke-miterlimit="22.9256"/>
<path d="M129.575 285.421C129.575 285.421 130.714 260.012 130.714 245.324C130.714 234.739 133.468 216.937 135.016 206.035" stroke="#263238" stroke-width="1.00006" stroke-miterlimit="22.9256"/>
<path d="M131.472 239.766C131.472 239.766 137.543 241.751 140.579 242.148C143.614 242.545 149.686 243.339 149.686 243.339L148.995 252.335C148.995 252.335 148.548 252.073 141.717 249.691C134.887 247.309 130.714 245.324 130.714 245.324" stroke="#263238" stroke-width="1.00006" stroke-miterlimit="22.9256"/>
<path d="M148.988 252.333C148.988 252.333 148.539 269.937 148.539 272.319C148.539 274.701 141.71 273.113 141.71 273.113" stroke="#263238" stroke-width="1.00006" stroke-miterlimit="22.9256"/>
<path d="M87.3054 273.86C87.3054 273.86 99.2192 270.343 102.893 269.708C106.558 269.064 113.897 276.099 115.119 279.942C116.34 283.777 114.777 284.635 114.777 284.635L90.3631 283.777L87.3054 273.86Z" fill="#9E9E9E" stroke="#263238" stroke-width="1.00006" stroke-miterlimit="22.9256"/>
<path d="M91.6226 272.622C91.6226 272.622 100.616 276.147 102.862 277.56C105.108 278.973 104.433 281.792 103.09 283.206C101.739 284.619 98.3692 286.024 97.474 286.024C96.5786 286.024 93.8764 286.262 91.1826 286.024C88.4887 285.786 86.0143 286.262 83.768 286.262C81.5218 286.262 74.7752 285.556 74.7752 285.556L72.7494 284.142C72.7494 284.142 68.9245 285.318 66.0028 286.493C63.0811 287.668 63.9766 285.079 66.2304 283.198C68.4767 281.316 74.1005 276.615 74.9957 276.139C75.8909 275.67 87.3579 272.145 87.3579 272.145L91.6226 272.622Z" fill="#9E9E9E" stroke="#263238" stroke-width="1.00006" stroke-miterlimit="22.9256"/>
<path d="M94.9923 273.559C94.9923 273.559 89.1492 270.739 87.5786 270.739C86.0069 270.739 74.7678 274.742 73.1896 275.917C71.6188 277.092 70.0404 288.382 71.1637 289.089C72.2867 289.796 73.1896 287.676 73.4099 286.27C73.6372 284.857 76.7795 277.337 76.7795 277.337L74.5329 289.328C74.5329 289.328 75.4284 291.21 76.3319 289.565C77.2271 287.922 82.8504 276.631 83.298 275.925C83.7456 275.218 85.3245 274.281 85.3245 274.281C85.3245 274.281 84.2015 279.458 83.298 284.396C82.4028 289.335 83.0707 290.748 84.421 290.979C85.7721 291.217 86.4478 287.922 87.1151 286.278C87.7906 284.635 90.7125 275.226 90.7125 275.226L94.9923 273.559Z" fill="#9E9E9E"/>
<path d="M94.9923 273.559C94.9923 273.559 89.1492 270.739 87.5786 270.739C86.0069 270.739 74.7678 274.742 73.1896 275.917C71.6188 277.092 70.0404 288.382 71.1637 289.089C72.2867 289.796 73.1896 287.676 73.4099 286.27C73.6372 284.857 76.7795 277.337 76.7795 277.337L74.5329 289.328C74.5329 289.328 75.4284 291.21 76.3319 289.565C77.2271 287.922 82.8504 276.631 83.298 275.925C83.7456 275.218 85.3245 274.281 85.3245 274.281C85.3245 274.281 84.2015 279.458 83.298 284.396C82.4028 289.335 83.0707 290.748 84.421 290.979C85.7721 291.217 86.4478 287.922 87.1151 286.278C87.7906 284.635 90.7125 275.226 90.7125 275.226" stroke="#263238" stroke-width="1.00006" stroke-miterlimit="22.9256"/>
<path d="M101.512 278.267C101.512 278.267 94.7651 285.556 93.8691 287.2C92.9739 288.844 92.9739 289.082 95.44 289.082C97.9143 289.082 105.556 283.905 106.232 283.206C106.907 282.5 106.679 280.387 105.108 278.974C103.538 277.561 101.512 278.267 101.512 278.267Z" fill="#9E9E9E" stroke="#263238" stroke-width="1.00006" stroke-miterlimit="22.9256"/>
<path d="M143.584 277.458C143.584 277.458 134.591 280.498 132.383 282.229C130.167 283.969 126.987 285.851 127.678 286.43C128.368 287.009 130.585 286.43 131.275 285.851C131.966 285.271 135.145 284.691 135.145 284.691C135.145 284.691 138.879 282.373 141.785 280.491C144.692 278.617 146.9 276.584 143.584 277.458Z" fill="#9E9E9E" stroke="#263238" stroke-width="1.00006" stroke-miterlimit="22.9256"/>
<path d="M193.216 261.529C193.216 261.529 168.172 266.269 159.111 269.612C150.05 272.955 146.445 275.266 141.922 278.608C137.391 281.952 128.209 288.288 129.537 289.407C130.873 290.519 135.669 286.62 136.466 285.787C137.263 284.953 143.129 282.443 143.129 282.443L147.037 280.355C147.037 280.355 141.148 287.954 139.016 289.907C136.883 291.861 138.333 293.044 139.926 292.48C141.528 291.924 144.548 288.605 144.548 288.605L154.315 281.888C154.315 281.888 150.315 287.74 148.456 289.415C146.59 291.09 150.589 292.48 151.386 291.09C152.183 289.693 156.182 286.072 156.182 286.072C156.182 286.072 162.844 282.451 164.439 281.054C166.04 279.656 170.032 275.758 170.032 275.758L199.871 278.267C199.871 278.267 201.738 277.155 200.668 270.74C199.613 264.324 193.216 261.529 193.216 261.529Z" fill="#FFA589" stroke="#263238" stroke-width="1.00006" stroke-miterlimit="22.9256"/>
<path d="M213.456 213.194L228.11 251.108L204.395 259.747L211.058 280.097C211.058 280.097 228.087 280.145 241.406 279.312C254.724 278.478 264.082 270.061 261.949 260.032C259.817 249.996 251.826 235.498 245.428 218.22C239.031 200.933 241.011 190.627 238.082 185.331C235.153 180.035 226.888 178.638 226.888 178.638L222.358 177.804L213.456 213.194Z" fill="#FEDFBF"/>
<path d="M259.725 272.287V268.285H261.705C261.781 268.023 261.857 267.762 261.917 267.492H259.725V257.566H260.833C260.749 257.304 260.658 257.035 260.567 256.772H259.717V254.342C259.474 253.684 259.223 253.016 258.958 252.334V256.772H250.99V246.847H256.711C256.598 246.586 256.492 246.323 256.378 246.053H250.99V236.128H252.052C251.938 235.858 251.825 235.604 251.703 235.334H250.99V233.674C250.739 233.087 250.481 232.499 250.231 231.904V235.334H242.263V225.409H247.552C247.445 225.147 247.34 224.877 247.241 224.615H242.263V214.69H243.682C243.598 214.427 243.522 214.158 243.446 213.895H242.263V209.386C241.974 208.131 241.724 206.932 241.504 205.781V213.895H233.535V203.97H241.185C241.14 203.701 241.094 203.438 241.056 203.176H233.542V193.251H239.773C239.736 192.981 239.697 192.719 239.66 192.457H233.542V182.738C232.852 182.349 232.162 182.015 231.494 181.738H224.815V179.951L224.057 179.808V181.729H221.818L221.621 182.524H224.064V192.449H219.124L218.926 193.243H224.064V203.168H216.415L216.217 203.962H224.057V213.887H216.088V204.486L215.33 207.504V213.887H213.72L213.523 214.682H215.33V219.708L216.088 221.669V214.682H224.057V224.607H217.227L217.53 225.4H224.057V235.326H221.37L221.674 236.12H224.057V242.289L224.815 244.251V236.12H232.784V246.045H225.506L225.809 246.839H232.776V256.765H224.808V254.017L224.049 254.295V256.772H217.265L215.087 257.566H215.33V267.492H207.361V260.385L206.602 260.663V267.492H206.382L207.361 270.469V268.285H215.33V281.792C215.573 281.792 215.83 281.792 216.088 281.784V268.278H224.057V281.673C224.307 281.665 224.558 281.665 224.815 281.657V268.278H232.784V281.427C233.035 281.418 233.293 281.41 233.542 281.395V268.27H241.511V280.998C241.769 280.982 242.02 280.958 242.27 280.934V268.27H250.238V279.164C250.496 279.069 250.747 278.965 250.998 278.862V268.27H258.965V273.256C259.231 272.947 259.482 272.621 259.725 272.287ZM224.057 267.492H216.088V257.566H224.057V267.492ZM232.784 267.492H224.815V257.566H232.784V267.492ZM232.784 235.334H224.815V225.409H232.784V235.334ZM232.784 224.615H224.815V214.69H232.784V224.615ZM232.784 213.895H224.815V203.97H232.784V213.895ZM232.784 203.176H224.815V193.251H232.784V203.176ZM232.784 192.457H224.815V182.532H232.784V192.457ZM241.511 267.492H233.542V257.566H241.511V267.492ZM241.511 256.772H233.542V246.847H241.511V256.772ZM241.511 246.053H233.542V236.128H241.511V246.053ZM241.511 235.334H233.542V225.409H241.511V235.334ZM241.511 224.615H233.542V214.69H241.511V224.615ZM250.238 267.492H242.27V257.566H250.238V267.492ZM250.238 256.772H242.27V246.847H250.238V256.772ZM250.238 246.053H242.27V236.128H250.238V246.053ZM250.998 267.492V257.566H258.965V267.492H250.998Z" fill="#263238" fill-opacity="0.2"/>
<path d="M213.201 213.146L227.855 251.061L204.139 259.7L210.802 280.05C210.802 280.05 227.832 280.098 241.15 279.264C254.469 278.43 263.826 270.014 261.694 259.985C259.561 249.949 251.57 235.45 245.172 218.172C238.775 200.886 240.756 190.58 237.826 185.284C234.897 179.988 226.633 178.591 226.633 178.591L222.102 177.757" stroke="#263238" stroke-width="1.00006" stroke-miterlimit="22.9256"/>
<path d="M242.392 246.252C235.789 247.379 228.125 250.103 228.125 250.103C228.125 250.103 238.248 243.131 243.841 242.575" stroke="#263238" stroke-width="1.00006" stroke-miterlimit="22.9256"/>
<path d="M249.168 245.918C248.272 245.76 247.195 245.728 245.996 245.807" stroke="#263238" stroke-width="1.00006" stroke-miterlimit="22.9256"/>
<path d="M258.579 298.657H238.908L236.449 257.972H261.037L258.579 298.657Z" fill="#263238" stroke="#263238" stroke-width="1.00006" stroke-miterlimit="22.9256" stroke-linejoin="round"/>
<path d="M262.123 258.035H235.356V263.958H262.123V258.035Z" fill="white" stroke="#263238" stroke-width="1.00006" stroke-miterlimit="22.9256" stroke-linejoin="round"/>
<path d="M262.123 258.265H235.356L238.035 254.748H259.452L262.123 258.265Z" fill="white" stroke="#263238" stroke-width="1.00006" stroke-miterlimit="22.9256" stroke-linejoin="round"/>
<path d="M259.299 286.723L260.278 270.518H237.208L238.187 286.723H259.299Z" fill="white" stroke="#263238" stroke-width="1.00006" stroke-miterlimit="22.9256" stroke-linejoin="round"/>
<path d="M145.224 301.365L169.462 294.664V298.094L145.224 305.2V301.365Z" fill="#263238" stroke="#263238" stroke-width="1.00006" stroke-miterlimit="22.9256" stroke-linejoin="round"/>
<path d="M169.462 294.664H42.7353L18.2383 301.365H145.224L169.462 294.664Z" fill="#89A8C8" stroke="#263238" stroke-width="1.00006" stroke-miterlimit="22.9256" stroke-linejoin="round"/>
<path d="M145.224 224.743H18.2383V305.201H145.224V224.743Z" fill="#89A8C8" stroke="#263238" stroke-width="1.00006" stroke-miterlimit="22.9256" stroke-linejoin="round"/>
<path d="M145.224 236.383C117.6 237.757 101.14 264.396 76.7032 282.245C54.4221 298.523 26.905 301.27 18.2383 301.738V305.2H145.224V236.383Z" fill="#7097BE" stroke="#263238" stroke-width="1.00006" stroke-miterlimit="22.9256" stroke-linejoin="round"/>
<path d="M145.224 301.365H18.2383V305.201H145.224V301.365Z" fill="#7097BE" stroke="#263238" stroke-width="1.00006" stroke-miterlimit="22.9256"/>
<path d="M271.976 257.21C271.976 257.21 261.397 239.495 269.858 229.538C278.32 219.573 292.079 224.368 294.894 233.595C297.717 242.822 291.722 258.313 291.722 258.313L271.976 257.21Z" fill="#618686" stroke="#263238" stroke-width="1.00006" stroke-miterlimit="22.9256" stroke-linecap="round" stroke-linejoin="round"/>
<path d="M272.333 236.914C270.572 236.914 263.871 234.334 261.753 231.006C259.636 227.688 259.287 220.304 265.283 220.304C271.278 220.304 273.395 231.372 273.395 231.372L273.744 235.429L272.333 236.914Z" fill="#618686"/>
<path d="M272.333 236.914C270.572 236.914 263.871 234.334 261.753 231.006C259.636 227.688 259.287 220.304 265.283 220.304C271.278 220.304 273.395 231.372 273.395 231.372L273.744 235.429" stroke="#263238" stroke-width="1.00006" stroke-miterlimit="22.9256" stroke-linecap="round" stroke-linejoin="round"/>
<path d="M277.758 230.023C276.18 229.196 271.285 223.757 270.807 219.795C270.329 215.833 273.159 209.068 278.525 211.863C283.891 214.666 281.06 225.56 281.06 225.56L279.641 229.355L277.758 230.023Z" fill="#618686"/>
<path d="M277.758 230.023C276.18 229.196 271.285 223.757 270.807 219.795C270.329 215.833 273.159 209.068 278.525 211.863C283.891 214.666 281.06 225.56 281.06 225.56L279.641 229.355" stroke="#263238" stroke-width="1.00006" stroke-miterlimit="22.9256" stroke-linecap="round" stroke-linejoin="round"/>
<path d="M284.156 231.881C283.284 230.277 282.092 222.908 283.799 219.343C285.499 215.77 291.449 211.784 294.424 217.231C297.399 222.678 289.271 230.094 289.271 230.094L286.084 232.428L284.156 231.881Z" fill="#618686"/>
<path d="M284.156 231.881C283.284 230.277 282.092 222.908 283.799 219.343C285.499 215.77 291.449 211.784 294.424 217.231C297.399 222.678 289.271 230.094 289.271 230.094L286.084 232.428" stroke="#263238" stroke-width="1.00006" stroke-miterlimit="22.9256" stroke-linecap="round" stroke-linejoin="round"/>
<path d="M286.266 245.109C285.97 243.291 287.298 235.946 290.075 233.214C292.853 230.483 299.751 228.895 300.745 235.08C301.74 241.266 291.654 245.283 291.654 245.283L287.89 246.323L286.266 245.109Z" fill="#618686"/>
<path d="M286.266 245.109C285.97 243.291 287.298 235.946 290.075 233.214C292.853 230.483 299.751 228.895 300.745 235.08C301.74 241.266 291.654 245.283 291.654 245.283L287.89 246.323" stroke="#263238" stroke-width="1.00006" stroke-miterlimit="22.9256" stroke-linecap="round" stroke-linejoin="round"/>
<path d="M262.528 226.561L263.719 228.522" stroke="white" stroke-width="1.00006" stroke-miterlimit="22.9256" stroke-linecap="round" stroke-linejoin="round"/>
<path d="M265.927 231.372L267.802 232.968" stroke="white" stroke-width="1.00006" stroke-miterlimit="22.9256" stroke-linecap="round" stroke-linejoin="round"/>
<path d="M263.886 222.82L265.761 225.671" stroke="white" stroke-width="1.00006" stroke-miterlimit="22.9256" stroke-linecap="round" stroke-linejoin="round"/>
<path d="M268.31 227.989L270.352 231.903" stroke="white" stroke-width="1.00006" stroke-miterlimit="22.9256" stroke-linecap="round" stroke-linejoin="round"/>
<path d="M273.076 218.548L273.759 220.684" stroke="white" stroke-width="1.00006" stroke-miterlimit="22.9256" stroke-linecap="round" stroke-linejoin="round"/>
<path d="M275.459 224.598L276.65 226.385" stroke="white" stroke-width="1.00006" stroke-miterlimit="22.9256" stroke-linecap="round" stroke-linejoin="round"/>
<path d="M274.95 214.277L276.483 217.834" stroke="white" stroke-width="1.00006" stroke-miterlimit="22.9256" stroke-linecap="round" stroke-linejoin="round"/>
<path d="M268.993 239.383L269.501 242.583" stroke="white" stroke-width="1.00006" stroke-miterlimit="22.9256" stroke-linecap="round" stroke-linejoin="round"/>
<path d="M270.526 245.608L271.202 248.284" stroke="white" stroke-width="1.00006" stroke-miterlimit="22.9256" stroke-linecap="round" stroke-linejoin="round"/>
<path d="M272.226 239.559L272.91 243.116" stroke="white" stroke-width="1.00006" stroke-miterlimit="22.9256" stroke-linecap="round" stroke-linejoin="round"/>
<path d="M274.435 245.608L274.951 248.284" stroke="white" stroke-width="1.00006" stroke-miterlimit="22.9256" stroke-linecap="round" stroke-linejoin="round"/>
<path d="M275.626 234.929L276.65 239.915" stroke="white" stroke-width="1.00006" stroke-miterlimit="22.9256" stroke-linecap="round" stroke-linejoin="round"/>
<path d="M278.009 244.72L278.184 247.038" stroke="white" stroke-width="1.00006" stroke-miterlimit="22.9256" stroke-linecap="round" stroke-linejoin="round"/>
<path d="M279.883 233.325L280.733 237.954" stroke="white" stroke-width="1.00006" stroke-miterlimit="22.9256" stroke-linecap="round" stroke-linejoin="round"/>
<path d="M280.733 242.767L281.075 247.571" stroke="white" stroke-width="1.00006" stroke-miterlimit="22.9256" stroke-linecap="round" stroke-linejoin="round"/>
<path d="M284.816 235.104V239.026" stroke="white" stroke-width="1.00006" stroke-miterlimit="22.9256" stroke-linecap="round" stroke-linejoin="round"/>
<path d="M284.308 244.012L284.475 247.038" stroke="white" stroke-width="1.00006" stroke-miterlimit="22.9256" stroke-linecap="round" stroke-linejoin="round"/>
<path d="M289.074 216.587L288.224 218.73" stroke="white" stroke-width="1.00006" stroke-miterlimit="22.9256" stroke-linecap="round" stroke-linejoin="round"/>
<path d="M287.882 221.216L287.032 224.249" stroke="white" stroke-width="1.00006" stroke-miterlimit="22.9256" stroke-linecap="round" stroke-linejoin="round"/>
<path d="M292.815 220.684L291.457 223.534" stroke="white" stroke-width="1.00006" stroke-miterlimit="22.9256" stroke-linecap="round" stroke-linejoin="round"/>
<path d="M288.565 226.743L287.032 228.522" stroke="white" stroke-width="1.00006" stroke-miterlimit="22.9256" stroke-linecap="round" stroke-linejoin="round"/>
<path d="M285.332 220.51L284.816 222.82" stroke="white" stroke-width="1.00006" stroke-miterlimit="22.9256" stroke-linecap="round" stroke-linejoin="round"/>
<path d="M292.815 233.325L290.94 236.533" stroke="white" stroke-width="1.00006" stroke-miterlimit="22.9256" stroke-linecap="round" stroke-linejoin="round"/>
<path d="M289.749 238.486L288.732 241.336" stroke="white" stroke-width="1.00006" stroke-miterlimit="22.9256" stroke-linecap="round" stroke-linejoin="round"/>
<path d="M291.282 242.766L294.348 240.98" stroke="white" stroke-width="1.00006" stroke-miterlimit="22.9256" stroke-linecap="round" stroke-linejoin="round"/>
<path d="M296.222 233.325L294.689 236.001" stroke="white" stroke-width="1.00006" stroke-miterlimit="22.9256" stroke-linecap="round" stroke-linejoin="round"/>
<path d="M297.748 236.351L295.706 237.955" stroke="white" stroke-width="1.00006" stroke-miterlimit="22.9256" stroke-linecap="round" stroke-linejoin="round"/>
<path d="M295.547 251.031H266.618V281.299H295.547V251.031Z" fill="#934F4B" stroke="#263238" stroke-width="1.00006" stroke-miterlimit="22.9256" stroke-linecap="round" stroke-linejoin="round"/>
<path d="M232.784 201.255V203.645C233.042 202.931 233.3 202.224 233.542 201.533V201.247H233.641C233.733 200.977 233.832 200.715 233.922 200.453H233.542V190.528H236.479C236.487 190.409 236.495 190.274 236.495 190.163C236.495 190.012 236.495 189.877 236.503 189.734H233.542V181.286C233.308 181.143 233.057 180.992 232.784 180.833V189.734H224.816V179.809H230.978C230.538 179.563 230.06 179.3 229.551 179.014H224.816V176.41C224.566 176.276 224.315 176.133 224.057 175.998V179.014H216.088V171.662C215.838 171.527 215.58 171.384 215.33 171.249V179.014H207.361V169.09H211.33C210.837 168.82 210.343 168.557 209.858 168.295H207.361V166.953C207.103 166.819 206.853 166.683 206.602 166.548V168.303H198.634V162.301C198.368 162.158 198.118 162.031 197.876 161.904V168.303H189.982C189.99 168.565 189.998 168.828 189.998 169.098H197.876V179.023H190.051C190.051 179.285 190.044 179.547 190.044 179.817H197.876V189.742H189.907V185.971C189.755 189.837 189.482 193.886 189.148 198.048V200.461H188.951C188.928 200.723 188.905 200.993 188.883 201.255H189.148V211.18H187.972C187.949 211.443 187.919 211.713 187.896 211.974H189.148V221.9H186.993C186.97 222.162 186.947 222.432 186.925 222.693H189.148V232.619H186.188C186.173 232.881 186.15 233.15 186.135 233.413H189.14V243.338H185.779C185.779 243.6 185.771 243.87 185.771 244.132H189.14V254.058H185.794C185.794 254.319 185.801 254.589 185.801 254.851H189.14V264.777H185.953C185.961 265.046 185.961 265.308 185.968 265.57H189.14V284.428H189.899V265.57H197.868V284.428H198.626V265.57H206.595V284.428H207.354V265.57H215.322V284.428H216.081V265.57H221.189C221.211 265.308 221.234 265.046 221.257 264.777H216.081V254.851H222.114C222.137 254.589 222.159 254.319 222.183 254.058H216.073V244.132H223.085C223.108 243.862 223.138 243.6 223.162 243.338H216.073V233.413H224.042V234.461C224.163 233.349 224.277 232.325 224.375 231.42C224.482 230.531 224.626 229.609 224.8 228.673V222.693H226.219C226.296 222.432 226.371 222.162 226.447 221.9H224.8V211.974H229.726C229.824 211.713 229.916 211.443 230.014 211.18H224.8V201.255H232.784ZM224.816 190.536H232.784V200.461H224.816V190.536ZM197.876 264.777H189.907V254.851H197.876V264.777ZM197.876 254.058H189.907V244.132H197.876V254.058ZM197.876 243.338H189.907V233.413H197.876V243.338ZM197.876 232.619H189.907V222.693H197.876V232.619ZM197.876 221.9H189.907V211.974H197.876V221.9ZM197.876 211.18H189.907V201.255H197.876V211.18ZM197.876 200.461H189.907V190.536H197.876V200.461ZM206.602 264.777H198.634V254.851H206.602V264.777ZM206.602 254.058H198.634V244.132H206.602V254.058ZM206.602 243.338H198.634V233.413H206.602V243.338ZM206.602 232.619H198.634V222.693H206.602V232.619ZM206.602 221.9H198.634V211.974H206.602V221.9ZM206.602 211.18H198.634V201.255H206.602V211.18ZM206.602 200.461H198.634V190.536H206.602V200.461ZM206.602 189.742H198.634V179.817H206.602V189.742ZM206.602 179.023H198.634V169.098H206.602V179.023ZM215.33 264.777H207.361V254.851H215.33V264.777ZM215.33 254.058H207.361V244.132H215.33V254.058ZM215.33 243.338H207.361V233.413H215.33V243.338ZM215.33 232.619H207.361V222.693H215.33V232.619ZM215.33 221.9H207.361V211.974H215.33V221.9ZM215.33 211.18H207.361V201.255H215.33V211.18ZM215.33 200.461H207.361V190.536H215.33V200.461ZM215.33 189.742H207.361V179.817H215.33V189.742ZM224.057 232.619H216.088V222.693H224.057V232.619ZM224.057 221.9H216.088V211.974H224.057V221.9ZM224.057 211.18H216.088V201.255H224.057V211.18ZM224.057 200.461H216.088V190.536H224.057V200.461ZM224.057 189.742H216.088V179.817H224.057V189.742Z" fill="black" fill-opacity="0.039216"/>
<path d="M189.224 155.877C189.224 155.877 190.286 162.849 190.02 181.802C189.952 186.582 189.649 191.703 189.231 197.015C190.142 195.705 193.079 191.521 193.754 191.283C194.551 191.005 198.816 195.189 202.277 195.745C205.737 196.3 207.073 196.3 203.339 192.124C199.605 187.939 198.011 175.68 196.676 166.477C196.304 163.905 195.871 162.031 195.431 160.665C195.401 160.649 195.37 160.634 195.34 160.625C192.418 159.228 189.224 155.877 189.224 155.877Z" fill="#FFCA94" stroke="black" stroke-width="0.8" stroke-miterlimit="22.9256"/>
<path d="M163.316 163.389C161.684 167.906 157.821 178.126 154.619 182.993C150.445 189.345 142.856 194.506 145.512 196.888C148.168 199.271 155.757 191.727 155.757 191.727C155.757 191.727 157.654 197.285 158.033 198.874C158.048 198.937 158.086 199.001 158.132 199.072C162.306 184.065 168.005 170.734 168.005 170.734C168.005 170.734 169.796 166.318 167.899 164.334C166.912 163.302 165.205 163.031 163.316 163.389Z" fill="#FFCA94" stroke="black" stroke-width="0.8" stroke-miterlimit="22.9256"/>
<path d="M154.444 155.004C154.444 155.004 161.6 165.771 168.005 170.733C174.411 175.695 179.866 168.748 184.139 161.3C188.412 153.852 191.258 148.39 193.39 141.934C195.523 135.479 193.39 124.799 184.845 116.359C176.3 107.918 156.371 95.5001 151.386 101.956C146.4 108.411 141.657 122.56 144.981 134.725C148.312 146.904 154.444 155.004 154.444 155.004Z" fill="#FFA589" stroke="#263238" stroke-width="1.00006" stroke-miterlimit="22.9256"/>
<path d="M151.431 131.843C151.431 131.843 155.423 130.389 159.711 131.843" stroke="#263238" stroke-width="2.00013" stroke-miterlimit="22.9256" stroke-linecap="round"/>
<path d="M157.556 138.488C157.783 139.774 157.495 140.918 156.91 141.021C156.334 141.132 155.681 140.179 155.453 138.885C155.226 137.599 155.514 136.456 156.098 136.352C156.675 136.241 157.328 137.194 157.556 138.488Z" fill="#263238"/>
<path d="M178.66 138.829C178.888 140.116 178.599 141.259 178.015 141.362C177.438 141.473 176.786 140.521 176.558 139.227C176.33 137.94 176.619 136.797 177.203 136.694C177.787 136.583 178.44 137.535 178.66 138.829Z" fill="#263238"/>
<path d="M163.02 156.338C163.02 156.338 166.579 157.83 171.564 157.576C176.55 157.33 180.815 153.606 180.815 153.606" stroke="#263238" stroke-width="1.00006" stroke-miterlimit="22.9256"/>
<path d="M152.137 107.449C152.137 107.449 162.678 132.605 163.99 133.295C165.311 133.986 167.945 125.712 167.945 125.712C167.945 125.712 171.564 132.605 175.852 134.669C180.132 136.733 181.453 133.287 181.453 133.287C181.453 133.287 186.067 136.042 187.713 137.424C189.36 138.806 189.36 138.806 189.36 138.806L191.007 145.007C191.007 145.007 186.067 161.896 187.713 163.96C189.36 166.024 198.581 163.269 198.581 163.269C198.581 163.269 196.274 166.715 199.241 166.715C202.208 166.715 207.475 167.406 215.049 156.719C222.623 146.039 223.282 128.809 223.282 128.809C223.282 128.809 226.902 132.946 227.237 127.777C227.563 122.608 222.956 113.993 222.956 113.993C222.956 113.993 230.204 121.576 229.544 113.651C228.883 105.727 224.603 96.7624 222.956 94.698C221.309 92.6337 211.429 86.7736 211.429 86.7736C211.429 86.7736 215.383 86.0827 212.415 81.263C209.448 76.436 198.581 75.0617 194.627 75.0617C190.673 75.0617 182.44 76.4439 182.44 76.4439C182.44 76.4439 187.706 65.7639 182.113 65.0732C176.513 64.3823 166.632 75.7527 166.632 75.7527C166.632 75.7527 156.751 67.4791 153.784 69.202C150.817 70.9251 152.797 73.3386 152.797 73.3386C152.797 73.3386 139.949 74.3708 136.33 80.2306C132.709 86.0906 136.989 89.5371 136.989 89.5371C136.989 89.5371 113.934 106.076 117.554 112.277C121.174 118.479 127.762 112.619 127.762 112.619C127.762 112.619 118.541 137.432 119.853 139.155C121.174 140.878 127.427 138.464 127.427 138.464C127.427 138.464 127.101 158.449 132.041 160.521C136.982 162.587 137.968 158.799 137.968 158.799C137.968 158.799 140.602 161.554 146.528 161.904C152.455 162.245 154.436 155.011 154.436 155.011C154.436 155.011 147.849 138.814 148.176 125.378C148.517 111.928 152.137 107.449 152.137 107.449Z" fill="#934F4B"/>
<path d="M155.552 144.42C160.728 144.42 164.924 141.195 164.924 137.218C164.924 133.241 160.728 130.016 155.552 130.016C150.376 130.016 146.18 133.241 146.18 137.218C146.18 141.195 150.376 144.42 155.552 144.42Z" stroke="#263238" stroke-width="1.00006" stroke-miterlimit="22.9256"/>
<path d="M178.091 143.927C183.267 143.927 187.463 140.703 187.463 136.726C187.463 132.748 183.267 129.524 178.091 129.524C172.914 129.524 168.719 132.748 168.719 136.726C168.719 140.703 172.914 143.927 178.091 143.927V143.927Z" stroke="#263238" stroke-width="1.00006" stroke-miterlimit="22.9256"/>
<path d="M165.395 136.471C165.395 136.471 167.292 134.978 168.719 136.717" stroke="#263238" stroke-width="1.00006" stroke-miterlimit="22.9256"/>
<path d="M165.395 136.472C165.395 136.472 163.02 149.382 164.917 152.113C166.814 154.845 173.462 152.113 173.932 150.621" stroke="#263238" stroke-width="1.00006" stroke-miterlimit="22.9256"/>
<path d="M211.338 255.677C211.338 255.677 216.719 261.061 218.32 265.245C219.921 269.43 219.329 280.769 218.267 281.88C217.204 282.992 197.374 282.857 194.111 278.585C193.261 277.473 199.082 274.909 196.152 268.771C193.223 262.641 191.888 262.078 191.888 262.078C191.888 262.078 189.49 260.68 194.02 257.615C198.55 254.565 208.94 252.335 211.338 255.677Z" fill="#FFCA94" stroke="#263238" stroke-width="1.00006" stroke-miterlimit="22.9256"/>
</g>
<defs>
<clipPath id="clip0_541_938">
<rect width="300" height="306" fill="white"/>
</clipPath>
</defs>
</svg>
