<svg width="40" height="40" viewBox="0 0 100 100" fill="none" xmlns="http://www.w3.org/2000/svg">
<circle cx="50" cy="50" r="50" fill="#FFAE1F"/>
<path d="M74.8613 40.8333H24.8613C24.1246 40.8333 23.418 40.5407 22.8971 40.0198C22.3762 39.4988 22.0835 38.7923 22.0835 38.0556V29.7222C22.0835 28.5278 22.8502 27.4667 23.9835 27.0889L48.9835 18.7556C49.5529 18.5639 50.1696 18.5639 50.7418 18.7556L75.7418 27.0889C76.2944 27.2732 76.775 27.6266 77.1156 28.0993C77.4561 28.5719 77.6392 29.1397 77.639 29.7222V38.0556C77.639 38.7923 77.3464 39.4988 76.8255 40.0198C76.3045 40.5407 75.598 40.8333 74.8613 40.8333ZM74.8613 76.9445H24.8613C24.1246 76.9445 23.418 76.6518 22.8971 76.1309C22.3762 75.6099 22.0835 74.9034 22.0835 74.1667V68.6111C22.0857 66.4017 22.9644 64.2833 24.5267 62.721C26.089 61.1587 28.2074 60.28 30.4168 60.2778H69.3057C71.5152 60.28 73.6335 61.1587 75.1958 62.721C76.7582 64.2833 77.6368 66.4017 77.639 68.6111V74.1667C77.639 74.9034 77.3464 75.6099 76.8255 76.1309C76.3045 76.6518 75.598 76.9445 74.8613 76.9445Z" fill="white"/>
<path d="M39.7224 60.2777V40.8333H28.6113V60.4888C29.1947 60.3583 29.7947 60.2777 30.4169 60.2777H39.7224ZM59.1669 40.8333V60.2777H69.3058C69.6391 60.2777 69.9558 60.3388 70.278 60.3777V40.8333H59.1669Z" fill="#D4D7E3"/>
</svg>
