<svg width="40" height="40" viewBox="0 0 100 100" fill="none" xmlns="http://www.w3.org/2000/svg">
<circle cx="50" cy="50" r="50" fill="#FFAE1F"/>
<g clip-path="url(#clip0_3428_5425)">
<path d="M37.6729 42.1875C37.6729 41.7731 37.8329 41.3757 38.1178 41.0826C38.4027 40.7896 38.7891 40.625 39.1919 40.625H60.4593C60.8622 40.625 61.2486 40.7896 61.5335 41.0826C61.8184 41.3757 61.9784 41.7731 61.9784 42.1875C61.9784 42.6019 61.8184 42.9993 61.5335 43.2924C61.2486 43.5854 60.8622 43.75 60.4593 43.75H39.1919C38.7891 43.75 38.4027 43.5854 38.1178 43.2924C37.8329 42.9993 37.6729 42.6019 37.6729 42.1875ZM37.6729 57.8125C37.6729 57.3981 37.8329 57.0007 38.1178 56.7076C38.4027 56.4146 38.7891 56.25 39.1919 56.25H60.4593C60.8622 56.25 61.2486 56.4146 61.5335 56.7076C61.8184 57.0007 61.9784 57.3981 61.9784 57.8125C61.9784 58.2269 61.8184 58.6243 61.5335 58.9174C61.2486 59.2104 60.8622 59.375 60.4593 59.375H39.1919C38.7891 59.375 38.4027 59.2104 38.1178 58.9174C37.8329 58.6243 37.6729 58.2269 37.6729 57.8125ZM40.711 46.875C39.9053 46.875 39.1325 47.2042 38.5627 47.7903C37.9929 48.3763 37.6729 49.1712 37.6729 50C37.6729 50.8288 37.9929 51.6237 38.5627 52.2097C39.1325 52.7958 39.9053 53.125 40.711 53.125H58.9402C59.746 53.125 60.5188 52.7958 61.0885 52.2097C61.6583 51.6237 61.9784 50.8288 61.9784 50C61.9784 49.1712 61.6583 48.3763 61.0885 47.7903C60.5188 47.2042 59.746 46.875 58.9402 46.875H40.711Z" fill="white"/>
<path d="M25.52 39.0625C25.52 37.8193 26.0002 36.627 26.8548 35.7479C27.7095 34.8689 28.8686 34.375 30.0773 34.375H69.5738C70.7825 34.375 71.9417 34.8689 72.7963 35.7479C73.651 36.627 74.1311 37.8193 74.1311 39.0625V43.75C74.1311 44.1644 73.9711 44.5618 73.6862 44.8549C73.4013 45.1479 73.0149 45.3125 72.612 45.3125C71.4034 45.3125 70.2442 45.8064 69.3895 46.6854C68.5349 47.5645 68.0547 48.7568 68.0547 50C68.0547 51.2432 68.5349 52.4355 69.3895 53.3146C70.2442 54.1936 71.4034 54.6875 72.612 54.6875C73.0149 54.6875 73.4013 54.8521 73.6862 55.1451C73.9711 55.4382 74.1311 55.8356 74.1311 56.25V60.9375C74.1311 62.1807 73.651 63.373 72.7963 64.2521C71.9417 65.1311 70.7825 65.625 69.5738 65.625H30.0773C28.8686 65.625 27.7095 65.1311 26.8548 64.2521C26.0002 63.373 25.52 62.1807 25.52 60.9375V56.25C25.52 55.8356 25.6801 55.4382 25.965 55.1451C26.2498 54.8521 26.6362 54.6875 27.0391 54.6875C28.2478 54.6875 29.407 54.1936 30.2616 53.3146C31.1163 52.4355 31.5964 51.2432 31.5964 50C31.5964 48.7568 31.1163 47.5645 30.2616 46.6854C29.407 45.8064 28.2478 45.3125 27.0391 45.3125C26.6362 45.3125 26.2498 45.1479 25.965 44.8549C25.6801 44.5618 25.52 44.1644 25.52 43.75V39.0625ZM30.0773 37.5C29.6744 37.5 29.288 37.6646 29.0031 37.9576C28.7183 38.2507 28.5582 38.6481 28.5582 39.0625V42.3438C30.2752 42.7024 31.8189 43.6605 32.9277 45.0558C34.0365 46.4512 34.6422 48.1979 34.6422 50C34.6422 51.8021 34.0365 53.5488 32.9277 54.9442C31.8189 56.3395 30.2752 57.2976 28.5582 57.6562V60.9375C28.5582 61.3519 28.7183 61.7493 29.0031 62.0424C29.288 62.3354 29.6744 62.5 30.0773 62.5H69.5738C69.9767 62.5 70.3631 62.3354 70.648 62.0424C70.9329 61.7493 71.0929 61.3519 71.0929 60.9375V57.6562C69.3759 57.2976 67.8322 56.3395 66.7234 54.9442C65.6146 53.5488 65.0089 51.8021 65.0089 50C65.0089 48.1979 65.6146 46.4512 66.7234 45.0558C67.8322 43.6605 69.3759 42.7024 71.0929 42.3438V39.0625C71.0929 38.6481 70.9329 38.2507 70.648 37.9576C70.3631 37.6646 69.9767 37.5 69.5738 37.5H30.0773Z" fill="white"/>
</g>
<defs>
<clipPath id="clip0_3428_5425">
<rect width="48.6111" height="50" fill="white" transform="translate(25.52 25)"/>
</clipPath>
</defs>
</svg>
