<svg width="40" height="40" viewBox="0 0 100 100" fill="none" xmlns="http://www.w3.org/2000/svg">
<circle cx="50" cy="50" r="50" fill="#3E3E52"/>
<path d="M42.3291 45C47.852 45 52.3291 40.5228 52.3291 35C52.3291 29.4772 47.852 25 42.3291 25C36.8063 25 32.3291 29.4772 32.3291 35C32.3291 40.5228 36.8063 45 42.3291 45Z" fill="white"/>
<path d="M42.3291 72.5025C51.9941 72.5025 59.8291 68.0253 59.8291 62.5025C59.8291 56.9797 51.9941 52.5025 42.3291 52.5025C32.6641 52.5025 24.8291 56.9797 24.8291 62.5025C24.8291 68.0253 32.6641 72.5025 42.3291 72.5025Z" fill="white"/>
<path d="M72.3266 62.5C72.3266 66.6425 67.2366 70 61.0241 70C62.8541 68 64.1141 65.4875 64.1141 62.505C64.1141 59.5175 62.8516 57.005 61.0166 55.0025C67.2316 55 72.3266 58.36 72.3266 62.5ZM64.8266 35C64.8274 36.2068 64.537 37.396 63.98 38.4665C63.423 39.5371 62.6159 40.4574 61.6273 41.1494C60.6386 41.8414 59.4975 42.2846 58.301 42.4414C57.1044 42.5982 55.8877 42.4639 54.7541 42.05C55.9754 39.9014 56.6156 37.4715 56.6116 35C56.6116 32.4375 55.9366 30.0325 54.7566 27.9525C55.89 27.5391 57.1065 27.4052 58.3027 27.5622C59.4989 27.7192 60.6396 28.1625 61.628 28.8545C62.6163 29.5464 63.4232 30.4666 63.98 31.5369C64.5368 32.6072 64.8273 33.7935 64.8266 35Z" fill="white"/>
</svg>
