<svg width="88" height="88" viewBox="0 0 88 88" fill="none" xmlns="http://www.w3.org/2000/svg">
<g filter="url(#filter0_d_5736_13687)">
<rect x="14" y="11" width="60" height="60" rx="30" fill="white"/>
<path d="M44 26.7812C41.1878 26.7812 38.4388 27.6152 36.1005 29.1775C33.7622 30.7399 31.9398 32.9606 30.8636 35.5587C29.7874 38.1569 29.5058 41.0158 30.0545 43.7739C30.6031 46.5321 31.9573 49.0656 33.9458 51.0542C35.9344 53.0427 38.4679 54.3969 41.2261 54.9455C43.9842 55.4942 46.8431 55.2126 49.4413 54.1364C52.0394 53.0602 54.2601 51.2378 55.8225 48.8995C57.3848 46.5613 58.2188 43.8122 58.2188 41C58.2148 37.2302 56.7155 33.6159 54.0498 30.9502C51.3841 28.2846 47.7698 26.7852 44 26.7812ZM44 53.0312C41.6204 53.0312 39.2943 52.3256 37.3158 51.0036C35.3373 49.6816 33.7952 47.8026 32.8846 45.6042C31.974 43.4057 31.7357 40.9867 32.1999 38.6528C32.6642 36.319 33.81 34.1752 35.4926 32.4926C37.1752 30.81 39.319 29.6642 41.6528 29.1999C43.9867 28.7357 46.4057 28.974 48.6042 29.8846C50.8026 30.7952 52.6816 32.3373 54.0036 34.3158C55.3256 36.2943 56.0313 38.6204 56.0313 41C56.0276 44.1898 54.7589 47.2479 52.5034 49.5034C50.2479 51.7589 47.1898 53.0276 44 53.0312ZM39.7713 37.2074C40.3894 38.376 40.7125 39.678 40.7125 41C40.7125 42.322 40.3894 43.624 39.7713 44.7926C39.7059 44.9226 39.6153 45.0383 39.5046 45.1328C39.394 45.2274 39.2655 45.2989 39.1269 45.3432C38.9883 45.3875 38.8422 45.4036 38.6972 45.3907C38.5522 45.3779 38.4113 45.3362 38.2827 45.2681C38.154 45.2 38.0402 45.107 37.948 44.9944C37.8558 44.8818 37.7869 44.752 37.7455 44.6124C37.7041 44.4729 37.691 44.3265 37.7069 44.1818C37.7228 44.0372 37.7674 43.8971 37.8381 43.7699C38.2958 42.9184 38.5354 41.9667 38.5354 41C38.5354 40.0333 38.2958 39.0816 37.8381 38.2301C37.7096 37.9744 37.6863 37.6786 37.7734 37.406C37.8605 37.1334 38.0509 36.9058 38.3039 36.772C38.5568 36.6382 38.8521 36.6088 39.1264 36.6902C39.4008 36.7716 39.6323 36.9573 39.7713 37.2074ZM47.4275 32.8324C48.7728 35.3461 49.4767 38.1531 49.4767 41.0041C49.4767 43.8551 48.7728 46.6621 47.4275 49.1758C47.2819 49.4149 47.0501 49.5891 46.78 49.6624C46.5098 49.7358 46.2217 49.7027 45.9752 49.57C45.7286 49.4374 45.5423 49.2153 45.4547 48.9494C45.367 48.6835 45.3846 48.3941 45.5039 48.1408C46.6803 45.9445 47.2959 43.4915 47.2959 41C47.2959 38.5085 46.6803 36.0555 45.5039 33.8592C45.3672 33.6032 45.3378 33.3034 45.4222 33.0257C45.5065 32.748 45.6977 32.5152 45.9537 32.3785C46.2097 32.2418 46.5095 32.2124 46.7872 32.2968C47.0649 32.3811 47.2977 32.5723 47.4344 32.8283L47.4275 32.8324ZM43.5994 35.0199C44.5813 36.8613 45.0949 38.916 45.0949 41.0027C45.0949 43.0895 44.5813 45.1442 43.5994 46.9855C43.5334 47.1149 43.4422 47.2297 43.3313 47.3235C43.2204 47.4172 43.0919 47.4879 42.9534 47.5314C42.8149 47.575 42.6691 47.5905 42.5245 47.5771C42.3799 47.5637 42.2394 47.5217 42.1112 47.4534C41.9831 47.3851 41.8698 47.2921 41.778 47.1795C41.6862 47.067 41.6177 46.9374 41.5765 46.7981C41.5353 46.6589 41.5223 46.5128 41.5382 46.3685C41.5541 46.2241 41.5985 46.0844 41.669 45.9574C42.4823 44.4326 42.9078 42.7309 42.9078 41.0027C42.9078 39.2745 42.4823 37.5729 41.669 36.048C41.5985 35.9211 41.5541 35.7813 41.5382 35.637C41.5223 35.4927 41.5353 35.3466 41.5765 35.2073C41.6177 35.0681 41.6862 34.9384 41.778 34.8259C41.8698 34.7134 41.9831 34.6203 42.1112 34.5521C42.2394 34.4838 42.3799 34.4417 42.5245 34.4284C42.6691 34.415 42.8149 34.4305 42.9534 34.474C43.0919 34.5176 43.2204 34.5883 43.3313 34.682C43.4422 34.7757 43.5334 34.8906 43.5994 35.0199Z" fill="#212636"/>
</g>
<defs>
<filter id="filter0_d_5736_13687" x="0" y="0" width="88" height="88" filterUnits="userSpaceOnUse" color-interpolation-filters="sRGB">
<feFlood flood-opacity="0" result="BackgroundImageFix"/>
<feColorMatrix in="SourceAlpha" type="matrix" values="0 0 0 0 0 0 0 0 0 0 0 0 0 0 0 0 0 0 127 0" result="hardAlpha"/>
<feOffset dy="3"/>
<feGaussianBlur stdDeviation="7"/>
<feColorMatrix type="matrix" values="0 0 0 0 0 0 0 0 0 0 0 0 0 0 0 0 0 0 0.08 0"/>
<feBlend mode="normal" in2="BackgroundImageFix" result="effect1_dropShadow_5736_13687"/>
<feBlend mode="normal" in="SourceGraphic" in2="effect1_dropShadow_5736_13687" result="shape"/>
</filter>
</defs>
</svg>
