<svg width="88" height="88" viewBox="0 0 88 88" fill="none" xmlns="http://www.w3.org/2000/svg">
<g filter="url(#filter0_d_5736_13668)">
<rect x="14" y="11" width="60" height="60" rx="30" fill="white"/>
<path d="M57.1251 40.9996C57.1251 41.2897 57.0099 41.5679 56.8048 41.773C56.5997 41.9781 56.3215 42.0934 56.0314 42.0934H44.0001C43.71 42.0934 43.4318 41.9781 43.2267 41.773C43.0216 41.5679 42.9064 41.2897 42.9064 40.9996C42.9064 40.7096 43.0216 40.4314 43.2267 40.2262C43.4318 40.0211 43.71 39.9059 44.0001 39.9059H56.0314C56.3215 39.9059 56.5997 40.0211 56.8048 40.2262C57.0099 40.4314 57.1251 40.7096 57.1251 40.9996ZM44.0001 33.3434H56.0314C56.3215 33.3434 56.5997 33.2281 56.8048 33.023C57.0099 32.8179 57.1251 32.5397 57.1251 32.2496C57.1251 31.9596 57.0099 31.6814 56.8048 31.4762C56.5997 31.2711 56.3215 31.1559 56.0314 31.1559H44.0001C43.71 31.1559 43.4318 31.2711 43.2267 31.4762C43.0216 31.6814 42.9064 31.9596 42.9064 32.2496C42.9064 32.5397 43.0216 32.8179 43.2267 33.023C43.4318 33.2281 43.71 33.3434 44.0001 33.3434ZM56.0314 48.6559H44.0001C43.71 48.6559 43.4318 48.7711 43.2267 48.9762C43.0216 49.1814 42.9064 49.4596 42.9064 49.7496C42.9064 50.0397 43.0216 50.3179 43.2267 50.523C43.4318 50.7281 43.71 50.8434 44.0001 50.8434H56.0314C56.3215 50.8434 56.5997 50.7281 56.8048 50.523C57.0099 50.3179 57.1251 50.0397 57.1251 49.7496C57.1251 49.4596 57.0099 49.1814 56.8048 48.9762C56.5997 48.7711 56.3215 48.6559 56.0314 48.6559ZM37.7575 29.2883L34.1564 32.8908L32.7427 31.4758C32.5375 31.2706 32.2591 31.1553 31.9689 31.1553C31.6786 31.1553 31.4003 31.2706 31.195 31.4758C30.9898 31.681 30.8745 31.9594 30.8745 32.2496C30.8745 32.5399 30.9898 32.8182 31.195 33.0235L33.3825 35.211C33.4841 35.3127 33.6047 35.3933 33.7375 35.4484C33.8703 35.5034 34.0126 35.5317 34.1564 35.5317C34.3001 35.5317 34.4424 35.5034 34.5752 35.4484C34.708 35.3933 34.8286 35.3127 34.9302 35.211L39.3052 30.836C39.5104 30.6307 39.6257 30.3524 39.6257 30.0621C39.6257 29.7719 39.5104 29.4935 39.3052 29.2883C39.1 29.0831 38.8216 28.9678 38.5314 28.9678C38.2411 28.9678 37.9628 29.0831 37.7575 29.2883ZM37.7575 38.0383L34.1564 41.6408L32.7427 40.2258C32.5375 40.0206 32.2591 39.9053 31.9689 39.9053C31.6786 39.9053 31.4003 40.0206 31.195 40.2258C30.9898 40.431 30.8745 40.7094 30.8745 40.9996C30.8745 41.1433 30.9028 41.2857 30.9578 41.4184C31.0128 41.5512 31.0934 41.6718 31.195 41.7735L33.3825 43.961C33.4841 44.0627 33.6047 44.1433 33.7375 44.1984C33.8703 44.2534 34.0126 44.2817 34.1564 44.2817C34.3001 44.2817 34.4424 44.2534 34.5752 44.1984C34.708 44.1433 34.8286 44.0627 34.9302 43.961L39.3052 39.586C39.5104 39.3807 39.6257 39.1024 39.6257 38.8121C39.6257 38.5219 39.5104 38.2435 39.3052 38.0383C39.1 37.8331 38.8216 37.7178 38.5314 37.7178C38.2411 37.7178 37.9628 37.8331 37.7575 38.0383ZM37.7575 46.7883L34.1564 50.3908L32.7427 48.9758C32.6411 48.8742 32.5204 48.7936 32.3877 48.7386C32.2549 48.6836 32.1126 48.6553 31.9689 48.6553C31.8252 48.6553 31.6829 48.6836 31.5501 48.7386C31.4173 48.7936 31.2967 48.8742 31.195 48.9758C31.0934 49.0774 31.0128 49.1981 30.9578 49.3308C30.9028 49.4636 30.8745 49.6059 30.8745 49.7496C30.8745 49.8933 30.9028 50.0357 30.9578 50.1684C31.0128 50.3012 31.0934 50.4218 31.195 50.5235L33.3825 52.711C33.4841 52.8127 33.6047 52.8933 33.7375 52.9484C33.8703 53.0034 34.0126 53.0317 34.1564 53.0317C34.3001 53.0317 34.4424 53.0034 34.5752 52.9484C34.708 52.8933 34.8286 52.8127 34.9302 52.711L39.3052 48.336C39.5104 48.1307 39.6257 47.8524 39.6257 47.5621C39.6257 47.2719 39.5104 46.9935 39.3052 46.7883C39.1 46.5831 38.8216 46.4678 38.5314 46.4678C38.2411 46.4678 37.9628 46.5831 37.7575 46.7883Z" fill="#212636"/>
</g>
<defs>
<filter id="filter0_d_5736_13668" x="0" y="0" width="88" height="88" filterUnits="userSpaceOnUse" color-interpolation-filters="sRGB">
<feFlood flood-opacity="0" result="BackgroundImageFix"/>
<feColorMatrix in="SourceAlpha" type="matrix" values="0 0 0 0 0 0 0 0 0 0 0 0 0 0 0 0 0 0 127 0" result="hardAlpha"/>
<feOffset dy="3"/>
<feGaussianBlur stdDeviation="7"/>
<feColorMatrix type="matrix" values="0 0 0 0 0 0 0 0 0 0 0 0 0 0 0 0 0 0 0.08 0"/>
<feBlend mode="normal" in2="BackgroundImageFix" result="effect1_dropShadow_5736_13668"/>
<feBlend mode="normal" in="SourceGraphic" in2="effect1_dropShadow_5736_13668" result="shape"/>
</filter>
</defs>
</svg>
