<svg width="88" height="88" viewBox="0 0 88 88" fill="none" xmlns="http://www.w3.org/2000/svg">
<g filter="url(#filter0_d_5736_13678)">
<rect x="14" y="11" width="60" height="60" rx="30" fill="white"/>
<path d="M59.8126 30.6562V39.4062C59.8126 39.6963 59.6974 39.9745 59.4923 40.1796C59.2872 40.3848 59.009 40.5 58.7189 40.5C58.4288 40.5 58.1506 40.3848 57.9455 40.1796C57.7404 39.9745 57.6251 39.6963 57.6251 39.4062V33.2963L46.3677 44.5551C46.2661 44.6568 46.1455 44.7374 46.0127 44.7925C45.8799 44.8475 45.7376 44.8759 45.5939 44.8759C45.4501 44.8759 45.3078 44.8475 45.175 44.7925C45.0422 44.7374 44.9216 44.6568 44.82 44.5551L40.1251 39.8588L31.0552 48.9301C30.85 49.1353 30.5716 49.2506 30.2814 49.2506C29.9911 49.2506 29.7128 49.1353 29.5075 48.9301C29.3023 48.7248 29.187 48.4465 29.187 48.1562C29.187 47.866 29.3023 47.5877 29.5075 47.3824L39.3513 37.5387C39.4529 37.437 39.5735 37.3563 39.7063 37.3013C39.8391 37.2462 39.9814 37.2179 40.1251 37.2179C40.2689 37.2179 40.4112 37.2462 40.544 37.3013C40.6767 37.3563 40.7974 37.437 40.8989 37.5387L45.5939 42.235L56.0788 31.75H49.9689C49.6788 31.75 49.4006 31.6348 49.1955 31.4296C48.9904 31.2245 48.8751 30.9463 48.8751 30.6562C48.8751 30.3662 48.9904 30.088 49.1955 29.8829C49.4006 29.6777 49.6788 29.5625 49.9689 29.5625H58.7189C59.009 29.5625 59.2872 29.6777 59.4923 29.8829C59.6974 30.088 59.8126 30.3662 59.8126 30.6562Z" fill="#212636"/>
</g>
<defs>
<filter id="filter0_d_5736_13678" x="0" y="0" width="88" height="88" filterUnits="userSpaceOnUse" color-interpolation-filters="sRGB">
<feFlood flood-opacity="0" result="BackgroundImageFix"/>
<feColorMatrix in="SourceAlpha" type="matrix" values="0 0 0 0 0 0 0 0 0 0 0 0 0 0 0 0 0 0 127 0" result="hardAlpha"/>
<feOffset dy="3"/>
<feGaussianBlur stdDeviation="7"/>
<feColorMatrix type="matrix" values="0 0 0 0 0 0 0 0 0 0 0 0 0 0 0 0 0 0 0.08 0"/>
<feBlend mode="normal" in2="BackgroundImageFix" result="effect1_dropShadow_5736_13678"/>
<feBlend mode="normal" in="SourceGraphic" in2="effect1_dropShadow_5736_13678" result="shape"/>
</filter>
</defs>
</svg>
